# MagicaVoxel @ Ephtracy

# material
mtllib Sign.mtl
usemtl palette

# normals
vn -1 0 0
vn 1 0 0
vn 0 0 1
vn 0 0 -1
vn 0 -1 0
vn 0 1 0

# texcoords
vt 0.341797 0.5
vt 0.369141 0.5
vt 0.861328 0.5
vt 0.994141 0.5

# verts
v -15 0 -1
v -15 0 -4
v -15 1 -1
v -15 1 -4
v -15 2 -1
v -15 2 -4
v -15 5 -1
v -15 5 -4
v -15 6 -1
v -15 6 -4
v -15 9 -1
v -15 9 -4
v -15 10 -1
v -15 10 -4
v -15 11 -1
v -15 11 -4
v -15 12 -1
v -15 12 -4
v -15 13 -1
v -15 13 -4
v -15 14 -1
v -15 14 -4
v -15 15 -1
v -15 15 -4
v -15 16 -1
v -15 16 -4
v -15 17 -1
v -15 17 -4
v -15 18 -1
v -15 18 -4
v 7 11 -1
v 7 11 -4
v 7 12 -1
v 7 12 -4
v 7 13 -1
v 7 13 -4
v 7 14 -1
v 7 14 -4
v 7 15 -1
v 7 15 -4
v 7 16 -1
v 7 16 -4
v 7 17 -1
v 7 17 -4
v 7 18 -1
v 7 18 -4
v -12 11 -1
v -12 11 -4
v -12 12 -1
v -12 12 -4
v -12 13 -1
v -12 13 -4
v -12 14 -1
v -12 14 -4
v -12 15 -1
v -12 15 -4
v -12 16 -1
v -12 16 -4
v -12 17 -1
v -12 17 -4
v -12 18 -1
v -12 18 -4
v 10 0 -1
v 10 0 -4
v 10 1 -1
v 10 1 -4
v 10 2 -1
v 10 2 -4
v 10 5 -1
v 10 5 -4
v 10 6 -1
v 10 6 -4
v 10 9 -1
v 10 9 -4
v 10 10 -1
v 10 10 -4
v 10 11 -1
v 10 11 -4
v 10 12 -1
v 10 12 -4
v 10 13 -1
v 10 13 -4
v 10 14 -1
v 10 14 -4
v 10 15 -1
v 10 15 -4
v 10 16 -1
v 10 16 -4
v 10 17 -1
v 10 17 -4
v 10 18 -1
v 10 18 -4
v -15 0 -1
v -15 1 -1
v -15 2 -1
v -15 5 -1
v -15 6 -1
v -15 9 -1
v -15 10 -1
v -15 11 -1
v -15 12 -1
v -15 13 -1
v -15 14 -1
v -15 15 -1
v -15 16 -1
v -15 17 -1
v -15 18 -1
v -12 11 -1
v -12 12 -1
v -12 13 -1
v -12 14 -1
v -12 15 -1
v -12 16 -1
v -12 17 -1
v -12 18 -1
v 7 11 -1
v 7 12 -1
v 7 13 -1
v 7 14 -1
v 7 15 -1
v 7 16 -1
v 7 17 -1
v 7 18 -1
v 10 0 -1
v 10 1 -1
v 10 2 -1
v 10 5 -1
v 10 6 -1
v 10 9 -1
v 10 10 -1
v 10 11 -1
v 10 12 -1
v 10 13 -1
v 10 14 -1
v 10 15 -1
v 10 16 -1
v 10 17 -1
v 10 18 -1
v -15 0 -4
v -15 1 -4
v -15 2 -4
v -15 5 -4
v -15 6 -4
v -15 9 -4
v -15 10 -4
v -15 11 -4
v -15 12 -4
v -15 13 -4
v -15 14 -4
v -15 15 -4
v -15 16 -4
v -15 17 -4
v -15 18 -4
v -12 11 -4
v -12 12 -4
v -12 13 -4
v -12 14 -4
v -12 15 -4
v -12 16 -4
v -12 17 -4
v -12 18 -4
v 7 11 -4
v 7 12 -4
v 7 13 -4
v 7 14 -4
v 7 15 -4
v 7 16 -4
v 7 17 -4
v 7 18 -4
v 10 0 -4
v 10 1 -4
v 10 2 -4
v 10 5 -4
v 10 6 -4
v 10 9 -4
v 10 10 -4
v 10 11 -4
v 10 12 -4
v 10 13 -4
v 10 14 -4
v 10 15 -4
v 10 16 -4
v 10 17 -4
v 10 18 -4
v -15 0 -1
v 10 0 -1
v -15 0 -4
v 10 0 -4
v -12 11 -1
v 7 11 -1
v -12 11 -4
v 7 11 -4
v -15 18 -1
v -12 18 -1
v 7 18 -1
v 10 18 -1
v -15 18 -4
v -12 18 -4
v 7 18 -4
v 10 18 -4

# faces
f 3/2/1 2/2/1 1/2/1
f 4/2/1 2/2/1 3/2/1
f 5/3/1 4/3/1 3/3/1
f 6/3/1 4/3/1 5/3/1
f 7/2/1 6/2/1 5/2/1
f 8/2/1 6/2/1 7/2/1
f 9/3/1 8/3/1 7/3/1
f 10/3/1 8/3/1 9/3/1
f 11/2/1 10/2/1 9/2/1
f 12/2/1 10/2/1 11/2/1
f 13/3/1 12/3/1 11/3/1
f 14/3/1 12/3/1 13/3/1
f 15/2/1 14/2/1 13/2/1
f 16/2/1 14/2/1 15/2/1
f 17/1/1 16/1/1 15/1/1
f 18/1/1 16/1/1 17/1/1
f 19/4/1 18/4/1 17/4/1
f 20/4/1 18/4/1 19/4/1
f 21/1/1 20/1/1 19/1/1
f 22/1/1 20/1/1 21/1/1
f 23/4/1 22/4/1 21/4/1
f 24/4/1 22/4/1 23/4/1
f 25/1/1 24/1/1 23/1/1
f 26/1/1 24/1/1 25/1/1
f 27/4/1 26/4/1 25/4/1
f 28/4/1 26/4/1 27/4/1
f 29/1/1 28/1/1 27/1/1
f 30/1/1 28/1/1 29/1/1
f 33/1/1 32/1/1 31/1/1
f 34/1/1 32/1/1 33/1/1
f 35/4/1 34/4/1 33/4/1
f 36/4/1 34/4/1 35/4/1
f 37/1/1 36/1/1 35/1/1
f 38/1/1 36/1/1 37/1/1
f 39/4/1 38/4/1 37/4/1
f 40/4/1 38/4/1 39/4/1
f 41/1/1 40/1/1 39/1/1
f 42/1/1 40/1/1 41/1/1
f 43/4/1 42/4/1 41/4/1
f 44/4/1 42/4/1 43/4/1
f 45/1/1 44/1/1 43/1/1
f 46/1/1 44/1/1 45/1/1
f 47/1/2 48/1/2 49/1/2
f 49/1/2 48/1/2 50/1/2
f 49/4/2 50/4/2 51/4/2
f 51/4/2 50/4/2 52/4/2
f 51/1/2 52/1/2 53/1/2
f 53/1/2 52/1/2 54/1/2
f 53/4/2 54/4/2 55/4/2
f 55/4/2 54/4/2 56/4/2
f 55/1/2 56/1/2 57/1/2
f 57/1/2 56/1/2 58/1/2
f 57/4/2 58/4/2 59/4/2
f 59/4/2 58/4/2 60/4/2
f 59/1/2 60/1/2 61/1/2
f 61/1/2 60/1/2 62/1/2
f 63/2/2 64/2/2 65/2/2
f 65/2/2 64/2/2 66/2/2
f 65/3/2 66/3/2 67/3/2
f 67/3/2 66/3/2 68/3/2
f 67/2/2 68/2/2 69/2/2
f 69/2/2 68/2/2 70/2/2
f 69/3/2 70/3/2 71/3/2
f 71/3/2 70/3/2 72/3/2
f 71/2/2 72/2/2 73/2/2
f 73/2/2 72/2/2 74/2/2
f 73/3/2 74/3/2 75/3/2
f 75/3/2 74/3/2 76/3/2
f 75/2/2 76/2/2 77/2/2
f 77/2/2 76/2/2 78/2/2
f 77/1/2 78/1/2 79/1/2
f 79/1/2 78/1/2 80/1/2
f 79/4/2 80/4/2 81/4/2
f 81/4/2 80/4/2 82/4/2
f 81/1/2 82/1/2 83/1/2
f 83/1/2 82/1/2 84/1/2
f 83/4/2 84/4/2 85/4/2
f 85/4/2 84/4/2 86/4/2
f 85/1/2 86/1/2 87/1/2
f 87/1/2 86/1/2 88/1/2
f 87/4/2 88/4/2 89/4/2
f 89/4/2 88/4/2 90/4/2
f 89/1/2 90/1/2 91/1/2
f 91/1/2 90/1/2 92/1/2
f 108/2/3 100/2/3 99/2/3
f 108/1/3 101/1/3 100/1/3
f 109/4/3 102/4/3 101/4/3
f 109/1/3 101/1/3 108/1/3
f 110/1/3 103/1/3 102/1/3
f 110/4/3 102/4/3 109/4/3
f 111/4/3 104/4/3 103/4/3
f 111/1/3 103/1/3 110/1/3
f 112/1/3 105/1/3 104/1/3
f 112/4/3 104/4/3 111/4/3
f 113/4/3 106/4/3 105/4/3
f 113/1/3 105/1/3 112/1/3
f 114/1/3 107/1/3 106/1/3
f 114/4/3 106/4/3 113/4/3
f 115/1/3 107/1/3 114/1/3
f 116/2/3 108/2/3 99/2/3
f 124/2/3 94/2/3 93/2/3
f 125/3/3 95/3/3 94/3/3
f 125/2/3 94/2/3 124/2/3
f 126/2/3 96/2/3 95/2/3
f 126/3/3 95/3/3 125/3/3
f 127/3/3 97/3/3 96/3/3
f 127/2/3 96/2/3 126/2/3
f 128/2/3 98/2/3 97/2/3
f 128/3/3 97/3/3 127/3/3
f 129/3/3 99/3/3 98/3/3
f 129/2/3 98/2/3 128/2/3
f 130/2/3 116/2/3 99/2/3
f 130/3/3 99/3/3 129/3/3
f 131/1/3 117/1/3 116/1/3
f 131/2/3 116/2/3 130/2/3
f 132/4/3 118/4/3 117/4/3
f 132/1/3 117/1/3 131/1/3
f 133/1/3 119/1/3 118/1/3
f 133/4/3 118/4/3 132/4/3
f 134/4/3 120/4/3 119/4/3
f 134/1/3 119/1/3 133/1/3
f 135/1/3 121/1/3 120/1/3
f 135/4/3 120/4/3 134/4/3
f 136/4/3 122/4/3 121/4/3
f 136/1/3 121/1/3 135/1/3
f 137/1/3 123/1/3 122/1/3
f 137/4/3 122/4/3 136/4/3
f 138/1/3 123/1/3 137/1/3
f 145/2/4 146/2/4 154/2/4
f 146/1/4 147/1/4 154/1/4
f 147/4/4 148/4/4 155/4/4
f 154/1/4 147/1/4 155/1/4
f 148/1/4 149/1/4 156/1/4
f 155/4/4 148/4/4 156/4/4
f 149/4/4 150/4/4 157/4/4
f 156/1/4 149/1/4 157/1/4
f 150/1/4 151/1/4 158/1/4
f 157/4/4 150/4/4 158/4/4
f 151/4/4 152/4/4 159/4/4
f 158/1/4 151/1/4 159/1/4
f 152/1/4 153/1/4 160/1/4
f 159/4/4 152/4/4 160/4/4
f 160/1/4 153/1/4 161/1/4
f 145/2/4 154/2/4 162/2/4
f 139/2/4 140/2/4 170/2/4
f 140/3/4 141/3/4 171/3/4
f 170/2/4 140/2/4 171/2/4
f 141/2/4 142/2/4 172/2/4
f 171/3/4 141/3/4 172/3/4
f 142/3/4 143/3/4 173/3/4
f 172/2/4 142/2/4 173/2/4
f 143/2/4 144/2/4 174/2/4
f 173/3/4 143/3/4 174/3/4
f 144/3/4 145/3/4 175/3/4
f 174/2/4 144/2/4 175/2/4
f 145/2/4 162/2/4 176/2/4
f 175/3/4 145/3/4 176/3/4
f 162/1/4 163/1/4 177/1/4
f 176/2/4 162/2/4 177/2/4
f 163/4/4 164/4/4 178/4/4
f 177/1/4 163/1/4 178/1/4
f 164/1/4 165/1/4 179/1/4
f 178/4/4 164/4/4 179/4/4
f 165/4/4 166/4/4 180/4/4
f 179/1/4 165/1/4 180/1/4
f 166/1/4 167/1/4 181/1/4
f 180/4/4 166/4/4 181/4/4
f 167/4/4 168/4/4 182/4/4
f 181/1/4 167/1/4 182/1/4
f 168/1/4 169/1/4 183/1/4
f 182/4/4 168/4/4 183/4/4
f 183/1/4 169/1/4 184/1/4
f 187/2/5 186/2/5 185/2/5
f 188/2/5 186/2/5 187/2/5
f 189/2/6 190/2/6 191/2/6
f 191/2/6 190/2/6 192/2/6
f 193/1/6 194/1/6 197/1/6
f 197/1/6 194/1/6 198/1/6
f 195/1/6 196/1/6 199/1/6
f 199/1/6 196/1/6 200/1/6
