# MagicaVoxel @ Ephtracy

# material
mtllib MarketStall1.mtl
usemtl palette

# normals
vn -1 0 0
vn 1 0 0
vn 0 0 1
vn 0 0 -1
vn 0 -1 0
vn 0 1 0

# texcoords
vt 0.845703 0.5
vt 0.869141 0.5
vt 0.958984 0.5

# verts
v 10 0 30
v 10 0 -0
v 10 25 30
v 10 25 29
v 10 25 28
v 10 25 27
v 10 25 26
v 10 25 25
v 10 25 24
v 10 25 23
v 10 25 22
v 10 25 21
v 10 25 20
v 10 25 19
v 10 25 18
v 10 25 17
v 10 25 16
v 10 25 15
v 10 25 14
v 10 25 13
v 10 25 12
v 10 25 11
v 10 25 10
v 10 25 9
v 10 25 8
v 10 25 7
v 10 25 6
v 10 25 5
v 10 25 4
v 10 25 3
v 10 25 2
v 10 25 1
v 10 25 -0
v 10 26 30
v 10 26 29
v 10 26 28
v 10 26 27
v 10 26 26
v 10 26 25
v 10 26 24
v 10 26 23
v 10 26 22
v 10 26 21
v 10 26 20
v 10 26 19
v 10 26 18
v 10 26 17
v 10 26 16
v 10 26 15
v 10 26 14
v 10 26 13
v 10 26 12
v 10 26 11
v 10 26 10
v 10 26 9
v 10 26 8
v 10 26 7
v 10 26 6
v 10 26 5
v 10 26 4
v 10 26 3
v 10 26 2
v 10 26 1
v 10 26 -0
v 14 0 25
v 14 0 21
v 14 25 25
v 14 25 24
v 14 25 23
v 14 25 22
v 14 25 21
v 29 0 30
v 29 0 -0
v 29 10 30
v 29 10 -0
v 34 10 30
v 34 10 25
v 34 10 5
v 34 10 -0
v 34 25 30
v 34 25 29
v 34 25 28
v 34 25 27
v 34 25 26
v 34 25 25
v 34 25 5
v 34 25 4
v 34 25 3
v 34 25 2
v 34 25 1
v 34 25 -0
v 36 22 25
v 36 22 5
v 36 25 25
v 36 25 24
v 36 25 23
v 36 25 22
v 36 25 21
v 36 25 20
v 36 25 19
v 36 25 18
v 36 25 17
v 36 25 16
v 36 25 15
v 36 25 14
v 36 25 13
v 36 25 12
v 36 25 11
v 36 25 10
v 36 25 9
v 36 25 8
v 36 25 7
v 36 25 6
v 36 25 5
v 39 20 25
v 39 20 24
v 39 20 23
v 39 20 22
v 39 20 21
v 39 20 20
v 39 20 19
v 39 20 18
v 39 20 17
v 39 20 16
v 39 20 15
v 39 20 14
v 39 20 13
v 39 20 12
v 39 20 11
v 39 20 10
v 39 20 9
v 39 20 8
v 39 20 7
v 39 20 6
v 39 20 5
v 39 22 25
v 39 22 24
v 39 22 23
v 39 22 22
v 39 22 21
v 39 22 20
v 39 22 19
v 39 22 18
v 39 22 17
v 39 22 16
v 39 22 15
v 39 22 14
v 39 22 13
v 39 22 12
v 39 22 11
v 39 22 10
v 39 22 9
v 39 22 8
v 39 22 7
v 39 22 6
v 39 22 5
v 11 0 25
v 11 0 21
v 11 25 25
v 11 25 24
v 11 25 23
v 11 25 22
v 11 25 21
v 15 0 30
v 15 0 -0
v 15 8 26
v 15 8 5
v 15 9 26
v 15 9 5
v 15 12 26
v 15 12 5
v 15 13 26
v 15 13 5
v 15 16 26
v 15 16 4
v 15 17 26
v 15 17 4
v 15 20 26
v 15 20 4
v 15 21 26
v 15 21 4
v 15 25 30
v 15 25 29
v 15 25 28
v 15 25 27
v 15 25 26
v 15 25 25
v 15 25 24
v 15 25 23
v 15 25 22
v 15 25 21
v 15 25 20
v 15 25 19
v 15 25 18
v 15 25 17
v 15 25 16
v 15 25 15
v 15 25 14
v 15 25 13
v 15 25 12
v 15 25 11
v 15 25 10
v 15 25 9
v 15 25 8
v 15 25 7
v 15 25 6
v 15 25 5
v 15 25 4
v 15 25 3
v 15 25 2
v 15 25 1
v 15 25 -0
v 17 8 26
v 17 8 5
v 17 9 26
v 17 9 5
v 17 12 26
v 17 12 5
v 17 13 26
v 17 13 5
v 17 16 26
v 17 16 4
v 17 17 26
v 17 17 4
v 17 20 26
v 17 20 4
v 17 21 26
v 17 21 4
v 39 1 30
v 39 1 -0
v 39 9 30
v 39 9 -0
v 39 10 30
v 39 10 25
v 39 10 5
v 39 10 -0
v 39 20 30
v 39 20 29
v 39 20 28
v 39 20 27
v 39 20 26
v 39 20 25
v 39 20 5
v 39 20 4
v 39 20 3
v 39 20 2
v 39 20 1
v 39 20 -0
v 40 0 30
v 40 0 -0
v 40 1 30
v 40 1 -0
v 40 20 30
v 40 20 29
v 40 20 28
v 40 20 27
v 40 20 26
v 40 20 25
v 40 20 24
v 40 20 23
v 40 20 22
v 40 20 21
v 40 20 20
v 40 20 19
v 40 20 18
v 40 20 17
v 40 20 16
v 40 20 15
v 40 20 14
v 40 20 13
v 40 20 12
v 40 20 11
v 40 20 10
v 40 20 9
v 40 20 8
v 40 20 7
v 40 20 6
v 40 20 5
v 40 20 4
v 40 20 3
v 40 20 2
v 40 20 1
v 40 20 -0
v 40 26 30
v 40 26 29
v 40 26 28
v 40 26 27
v 40 26 26
v 40 26 25
v 40 26 24
v 40 26 23
v 40 26 22
v 40 26 21
v 40 26 20
v 40 26 19
v 40 26 18
v 40 26 17
v 40 26 16
v 40 26 15
v 40 26 14
v 40 26 13
v 40 26 12
v 40 26 11
v 40 26 10
v 40 26 9
v 40 26 8
v 40 26 7
v 40 26 6
v 40 26 5
v 40 26 4
v 40 26 3
v 40 26 2
v 40 26 1
v 40 26 -0
v 42 9 30
v 42 9 -0
v 42 10 30
v 42 10 -0
v 10 0 30
v 10 25 30
v 10 26 30
v 15 0 30
v 15 25 30
v 29 0 30
v 29 10 30
v 34 10 30
v 34 25 30
v 39 1 30
v 39 9 30
v 39 10 30
v 39 20 30
v 39 25 30
v 40 0 30
v 40 1 30
v 40 20 30
v 40 26 30
v 42 9 30
v 42 10 30
v 15 8 26
v 15 9 26
v 15 12 26
v 15 13 26
v 15 16 26
v 15 17 26
v 15 20 26
v 15 21 26
v 17 8 26
v 17 9 26
v 17 12 26
v 17 13 26
v 17 16 26
v 17 17 26
v 17 20 26
v 17 21 26
v 11 0 21
v 11 25 21
v 14 0 21
v 14 25 21
v 34 10 5
v 34 25 5
v 36 22 5
v 36 25 5
v 39 10 5
v 39 20 5
v 39 22 5
v 11 0 25
v 11 25 25
v 14 0 25
v 14 25 25
v 34 10 25
v 34 25 25
v 36 22 25
v 36 25 25
v 39 10 25
v 39 20 25
v 39 22 25
v 15 8 5
v 15 9 5
v 15 12 5
v 15 13 5
v 17 8 5
v 17 9 5
v 17 12 5
v 17 13 5
v 15 16 4
v 15 17 4
v 15 20 4
v 15 21 4
v 17 16 4
v 17 17 4
v 17 20 4
v 17 21 4
v 10 0 -0
v 10 25 -0
v 10 26 -0
v 15 0 -0
v 15 25 -0
v 29 0 -0
v 29 10 -0
v 34 10 -0
v 34 25 -0
v 39 1 -0
v 39 9 -0
v 39 10 -0
v 39 20 -0
v 39 25 -0
v 40 0 -0
v 40 1 -0
v 40 20 -0
v 40 26 -0
v 42 9 -0
v 42 10 -0
v 10 0 30
v 15 0 30
v 29 0 30
v 40 0 30
v 11 0 25
v 14 0 25
v 11 0 21
v 14 0 21
v 10 0 -0
v 15 0 -0
v 29 0 -0
v 40 0 -0
v 15 8 26
v 17 8 26
v 15 8 5
v 17 8 5
v 39 9 30
v 42 9 30
v 39 9 -0
v 42 9 -0
v 15 12 26
v 17 12 26
v 15 12 5
v 17 12 5
v 15 16 26
v 17 16 26
v 15 16 4
v 17 16 4
v 39 20 30
v 40 20 30
v 39 20 29
v 40 20 29
v 39 20 28
v 40 20 28
v 39 20 27
v 40 20 27
v 15 20 26
v 17 20 26
v 39 20 26
v 40 20 26
v 39 20 25
v 40 20 25
v 39 20 24
v 40 20 24
v 39 20 23
v 40 20 23
v 39 20 22
v 40 20 22
v 39 20 21
v 40 20 21
v 39 20 20
v 40 20 20
v 39 20 19
v 40 20 19
v 39 20 18
v 40 20 18
v 39 20 17
v 40 20 17
v 39 20 16
v 40 20 16
v 39 20 15
v 40 20 15
v 39 20 14
v 40 20 14
v 39 20 13
v 40 20 13
v 39 20 12
v 40 20 12
v 39 20 11
v 40 20 11
v 39 20 10
v 40 20 10
v 39 20 9
v 40 20 9
v 39 20 8
v 40 20 8
v 39 20 7
v 40 20 7
v 39 20 6
v 40 20 6
v 39 20 5
v 40 20 5
v 15 20 4
v 17 20 4
v 39 20 4
v 40 20 4
v 39 20 3
v 40 20 3
v 39 20 2
v 40 20 2
v 39 20 1
v 40 20 1
v 39 20 -0
v 40 20 -0
v 36 22 25
v 39 22 25
v 39 22 24
v 39 22 23
v 39 22 22
v 39 22 21
v 39 22 20
v 39 22 19
v 39 22 18
v 39 22 17
v 39 22 16
v 39 22 15
v 39 22 14
v 39 22 13
v 39 22 12
v 39 22 11
v 39 22 10
v 39 22 9
v 39 22 8
v 39 22 7
v 39 22 6
v 36 22 5
v 39 22 5
v 15 25 30
v 34 25 30
v 15 25 29
v 34 25 29
v 15 25 28
v 34 25 28
v 15 25 27
v 34 25 27
v 15 25 26
v 34 25 26
v 11 25 25
v 14 25 25
v 15 25 25
v 34 25 25
v 36 25 25
v 11 25 24
v 14 25 24
v 15 25 24
v 36 25 24
v 11 25 23
v 14 25 23
v 15 25 23
v 36 25 23
v 11 25 22
v 14 25 22
v 15 25 22
v 36 25 22
v 11 25 21
v 14 25 21
v 15 25 21
v 36 25 21
v 15 25 20
v 36 25 20
v 15 25 19
v 36 25 19
v 15 25 18
v 36 25 18
v 15 25 17
v 36 25 17
v 15 25 16
v 36 25 16
v 15 25 15
v 36 25 15
v 15 25 14
v 36 25 14
v 15 25 13
v 36 25 13
v 15 25 12
v 36 25 12
v 15 25 11
v 36 25 11
v 15 25 10
v 36 25 10
v 15 25 9
v 36 25 9
v 15 25 8
v 36 25 8
v 15 25 7
v 36 25 7
v 15 25 6
v 36 25 6
v 15 25 5
v 34 25 5
v 36 25 5
v 15 25 4
v 34 25 4
v 15 25 3
v 34 25 3
v 15 25 2
v 34 25 2
v 15 25 1
v 34 25 1
v 15 25 -0
v 34 25 -0
v 39 1 30
v 40 1 30
v 39 1 -0
v 40 1 -0
v 15 9 26
v 17 9 26
v 15 9 5
v 17 9 5
v 29 10 30
v 34 10 30
v 39 10 30
v 42 10 30
v 34 10 25
v 39 10 25
v 34 10 5
v 39 10 5
v 29 10 -0
v 34 10 -0
v 39 10 -0
v 42 10 -0
v 15 13 26
v 17 13 26
v 15 13 5
v 17 13 5
v 15 17 26
v 17 17 26
v 15 17 4
v 17 17 4
v 15 21 26
v 17 21 26
v 15 21 4
v 17 21 4
v 10 26 30
v 40 26 30
v 10 26 29
v 40 26 29
v 10 26 28
v 40 26 28
v 10 26 27
v 40 26 27
v 10 26 26
v 40 26 26
v 10 26 25
v 40 26 25
v 10 26 24
v 40 26 24
v 10 26 23
v 40 26 23
v 10 26 22
v 40 26 22
v 10 26 21
v 40 26 21
v 10 26 20
v 40 26 20
v 10 26 19
v 40 26 19
v 10 26 18
v 40 26 18
v 10 26 17
v 40 26 17
v 10 26 16
v 40 26 16
v 10 26 15
v 40 26 15
v 10 26 14
v 40 26 14
v 10 26 13
v 40 26 13
v 10 26 12
v 40 26 12
v 10 26 11
v 40 26 11
v 10 26 10
v 40 26 10
v 10 26 9
v 40 26 9
v 10 26 8
v 40 26 8
v 10 26 7
v 40 26 7
v 10 26 6
v 40 26 6
v 10 26 5
v 40 26 5
v 10 26 4
v 40 26 4
v 10 26 3
v 40 26 3
v 10 26 2
v 40 26 2
v 10 26 1
v 40 26 1
v 10 26 -0
v 40 26 -0

# faces
f 3/2/1 2/2/1 1/2/1
f 4/2/1 2/2/1 3/2/1
f 5/2/1 2/2/1 4/2/1
f 6/2/1 2/2/1 5/2/1
f 7/2/1 2/2/1 6/2/1
f 8/2/1 2/2/1 7/2/1
f 9/2/1 2/2/1 8/2/1
f 10/2/1 2/2/1 9/2/1
f 11/2/1 2/2/1 10/2/1
f 12/2/1 2/2/1 11/2/1
f 13/2/1 2/2/1 12/2/1
f 14/2/1 2/2/1 13/2/1
f 15/2/1 2/2/1 14/2/1
f 16/2/1 2/2/1 15/2/1
f 17/2/1 2/2/1 16/2/1
f 18/2/1 2/2/1 17/2/1
f 19/2/1 2/2/1 18/2/1
f 20/2/1 2/2/1 19/2/1
f 21/2/1 2/2/1 20/2/1
f 22/2/1 2/2/1 21/2/1
f 23/2/1 2/2/1 22/2/1
f 24/2/1 2/2/1 23/2/1
f 25/2/1 2/2/1 24/2/1
f 26/2/1 2/2/1 25/2/1
f 27/2/1 2/2/1 26/2/1
f 28/2/1 2/2/1 27/2/1
f 29/2/1 2/2/1 28/2/1
f 30/2/1 2/2/1 29/2/1
f 31/2/1 2/2/1 30/2/1
f 32/2/1 2/2/1 31/2/1
f 33/2/1 2/2/1 32/2/1
f 34/1/1 4/1/1 3/1/1
f 35/3/1 5/3/1 4/3/1
f 35/1/1 4/1/1 34/1/1
f 36/1/1 6/1/1 5/1/1
f 36/3/1 5/3/1 35/3/1
f 37/3/1 7/3/1 6/3/1
f 37/1/1 6/1/1 36/1/1
f 38/1/1 8/1/1 7/1/1
f 38/3/1 7/3/1 37/3/1
f 39/3/1 9/3/1 8/3/1
f 39/1/1 8/1/1 38/1/1
f 40/1/1 10/1/1 9/1/1
f 40/3/1 9/3/1 39/3/1
f 41/3/1 11/3/1 10/3/1
f 41/1/1 10/1/1 40/1/1
f 42/1/1 12/1/1 11/1/1
f 42/3/1 11/3/1 41/3/1
f 43/3/1 13/3/1 12/3/1
f 43/1/1 12/1/1 42/1/1
f 44/1/1 14/1/1 13/1/1
f 44/3/1 13/3/1 43/3/1
f 45/3/1 15/3/1 14/3/1
f 45/1/1 14/1/1 44/1/1
f 46/1/1 16/1/1 15/1/1
f 46/3/1 15/3/1 45/3/1
f 47/3/1 17/3/1 16/3/1
f 47/1/1 16/1/1 46/1/1
f 48/1/1 18/1/1 17/1/1
f 48/3/1 17/3/1 47/3/1
f 49/3/1 19/3/1 18/3/1
f 49/1/1 18/1/1 48/1/1
f 50/1/1 20/1/1 19/1/1
f 50/3/1 19/3/1 49/3/1
f 51/3/1 21/3/1 20/3/1
f 51/1/1 20/1/1 50/1/1
f 52/1/1 22/1/1 21/1/1
f 52/3/1 21/3/1 51/3/1
f 53/3/1 23/3/1 22/3/1
f 53/1/1 22/1/1 52/1/1
f 54/1/1 24/1/1 23/1/1
f 54/3/1 23/3/1 53/3/1
f 55/3/1 25/3/1 24/3/1
f 55/1/1 24/1/1 54/1/1
f 56/1/1 26/1/1 25/1/1
f 56/3/1 25/3/1 55/3/1
f 57/3/1 27/3/1 26/3/1
f 57/1/1 26/1/1 56/1/1
f 58/1/1 28/1/1 27/1/1
f 58/3/1 27/3/1 57/3/1
f 59/3/1 29/3/1 28/3/1
f 59/1/1 28/1/1 58/1/1
f 60/1/1 30/1/1 29/1/1
f 60/3/1 29/3/1 59/3/1
f 61/3/1 31/3/1 30/3/1
f 61/1/1 30/1/1 60/1/1
f 62/1/1 32/1/1 31/1/1
f 62/3/1 31/3/1 61/3/1
f 63/3/1 33/3/1 32/3/1
f 63/1/1 32/1/1 62/1/1
f 64/3/1 33/3/1 63/3/1
f 67/2/1 66/2/1 65/2/1
f 68/2/1 66/2/1 67/2/1
f 69/2/1 66/2/1 68/2/1
f 70/2/1 66/2/1 69/2/1
f 71/2/1 66/2/1 70/2/1
f 74/2/1 73/2/1 72/2/1
f 75/2/1 73/2/1 74/2/1
f 80/2/1 77/2/1 76/2/1
f 81/2/1 77/2/1 80/2/1
f 82/2/1 77/2/1 81/2/1
f 83/2/1 77/2/1 82/2/1
f 84/2/1 77/2/1 83/2/1
f 85/2/1 77/2/1 84/2/1
f 86/2/1 79/2/1 78/2/1
f 87/2/1 79/2/1 86/2/1
f 88/2/1 79/2/1 87/2/1
f 89/2/1 79/2/1 88/2/1
f 90/2/1 79/2/1 89/2/1
f 91/2/1 79/2/1 90/2/1
f 94/2/1 93/2/1 92/2/1
f 95/2/1 93/2/1 94/2/1
f 96/2/1 93/2/1 95/2/1
f 97/2/1 93/2/1 96/2/1
f 98/2/1 93/2/1 97/2/1
f 99/2/1 93/2/1 98/2/1
f 100/2/1 93/2/1 99/2/1
f 101/2/1 93/2/1 100/2/1
f 102/2/1 93/2/1 101/2/1
f 103/2/1 93/2/1 102/2/1
f 104/2/1 93/2/1 103/2/1
f 105/2/1 93/2/1 104/2/1
f 106/2/1 93/2/1 105/2/1
f 107/2/1 93/2/1 106/2/1
f 108/2/1 93/2/1 107/2/1
f 109/2/1 93/2/1 108/2/1
f 110/2/1 93/2/1 109/2/1
f 111/2/1 93/2/1 110/2/1
f 112/2/1 93/2/1 111/2/1
f 113/2/1 93/2/1 112/2/1
f 114/2/1 93/2/1 113/2/1
f 136/3/1 116/3/1 115/3/1
f 137/1/1 117/1/1 116/1/1
f 137/3/1 116/3/1 136/3/1
f 138/3/1 118/3/1 117/3/1
f 138/1/1 117/1/1 137/1/1
f 139/1/1 119/1/1 118/1/1
f 139/3/1 118/3/1 138/3/1
f 140/3/1 120/3/1 119/3/1
f 140/1/1 119/1/1 139/1/1
f 141/1/1 121/1/1 120/1/1
f 141/3/1 120/3/1 140/3/1
f 142/3/1 122/3/1 121/3/1
f 142/1/1 121/1/1 141/1/1
f 143/1/1 123/1/1 122/1/1
f 143/3/1 122/3/1 142/3/1
f 144/3/1 124/3/1 123/3/1
f 144/1/1 123/1/1 143/1/1
f 145/1/1 125/1/1 124/1/1
f 145/3/1 124/3/1 144/3/1
f 146/3/1 126/3/1 125/3/1
f 146/1/1 125/1/1 145/1/1
f 147/1/1 127/1/1 126/1/1
f 147/3/1 126/3/1 146/3/1
f 148/3/1 128/3/1 127/3/1
f 148/1/1 127/1/1 147/1/1
f 149/1/1 129/1/1 128/1/1
f 149/3/1 128/3/1 148/3/1
f 150/3/1 130/3/1 129/3/1
f 150/1/1 129/1/1 149/1/1
f 151/1/1 131/1/1 130/1/1
f 151/3/1 130/3/1 150/3/1
f 152/3/1 132/3/1 131/3/1
f 152/1/1 131/1/1 151/1/1
f 153/1/1 133/1/1 132/1/1
f 153/3/1 132/3/1 152/3/1
f 154/3/1 134/3/1 133/3/1
f 154/1/1 133/1/1 153/1/1
f 155/1/1 135/1/1 134/1/1
f 155/3/1 134/3/1 154/3/1
f 156/1/1 135/1/1 155/1/1
f 157/2/2 158/2/2 159/2/2
f 159/2/2 158/2/2 160/2/2
f 160/2/2 158/2/2 161/2/2
f 161/2/2 158/2/2 162/2/2
f 162/2/2 158/2/2 163/2/2
f 164/2/2 165/2/2 166/2/2
f 166/2/2 165/2/2 167/2/2
f 164/2/2 166/2/2 168/2/2
f 167/2/2 165/2/2 169/2/2
f 164/2/2 168/2/2 170/2/2
f 168/2/2 169/2/2 170/2/2
f 169/2/2 165/2/2 171/2/2
f 170/2/2 169/2/2 171/2/2
f 164/2/2 170/2/2 172/2/2
f 171/2/2 165/2/2 173/2/2
f 164/2/2 172/2/2 174/2/2
f 172/2/2 173/2/2 174/2/2
f 173/2/2 165/2/2 175/2/2
f 174/2/2 173/2/2 175/2/2
f 164/2/2 174/2/2 176/2/2
f 175/2/2 165/2/2 177/2/2
f 164/2/2 176/2/2 178/2/2
f 176/2/2 177/2/2 178/2/2
f 177/2/2 165/2/2 179/2/2
f 178/2/2 177/2/2 179/2/2
f 164/2/2 178/2/2 180/2/2
f 179/2/2 165/2/2 181/2/2
f 164/2/2 180/2/2 182/2/2
f 180/2/2 181/2/2 182/2/2
f 182/2/2 181/2/2 183/2/2
f 183/2/2 181/2/2 184/2/2
f 184/2/2 181/2/2 185/2/2
f 185/2/2 181/2/2 186/2/2
f 186/2/2 181/2/2 187/2/2
f 187/2/2 181/2/2 188/2/2
f 188/2/2 181/2/2 189/2/2
f 189/2/2 181/2/2 190/2/2
f 190/2/2 181/2/2 191/2/2
f 191/2/2 181/2/2 192/2/2
f 192/2/2 181/2/2 193/2/2
f 193/2/2 181/2/2 194/2/2
f 194/2/2 181/2/2 195/2/2
f 195/2/2 181/2/2 196/2/2
f 196/2/2 181/2/2 197/2/2
f 197/2/2 181/2/2 198/2/2
f 198/2/2 181/2/2 199/2/2
f 199/2/2 181/2/2 200/2/2
f 200/2/2 181/2/2 201/2/2
f 201/2/2 181/2/2 202/2/2
f 202/2/2 181/2/2 203/2/2
f 203/2/2 181/2/2 204/2/2
f 204/2/2 181/2/2 205/2/2
f 205/2/2 181/2/2 206/2/2
f 206/2/2 181/2/2 207/2/2
f 181/2/2 165/2/2 208/2/2
f 207/2/2 181/2/2 208/2/2
f 208/2/2 165/2/2 209/2/2
f 209/2/2 165/2/2 210/2/2
f 210/2/2 165/2/2 211/2/2
f 211/2/2 165/2/2 212/2/2
f 213/2/2 214/2/2 215/2/2
f 215/2/2 214/2/2 216/2/2
f 217/2/2 218/2/2 219/2/2
f 219/2/2 218/2/2 220/2/2
f 221/2/2 222/2/2 223/2/2
f 223/2/2 222/2/2 224/2/2
f 225/2/2 226/2/2 227/2/2
f 227/2/2 226/2/2 228/2/2
f 229/2/2 230/2/2 231/2/2
f 231/2/2 230/2/2 232/2/2
f 233/2/2 234/2/2 237/2/2
f 237/2/2 234/2/2 238/2/2
f 238/2/2 234/2/2 239/2/2
f 239/2/2 234/2/2 240/2/2
f 240/2/2 234/2/2 241/2/2
f 241/2/2 234/2/2 242/2/2
f 235/2/2 236/2/2 243/2/2
f 243/2/2 236/2/2 244/2/2
f 244/2/2 236/2/2 245/2/2
f 245/2/2 236/2/2 246/2/2
f 246/2/2 236/2/2 247/2/2
f 247/2/2 236/2/2 248/2/2
f 249/2/2 250/2/2 251/2/2
f 251/2/2 250/2/2 252/2/2
f 253/1/2 254/1/2 284/1/2
f 254/3/2 255/3/2 285/3/2
f 284/1/2 254/1/2 285/1/2
f 255/1/2 256/1/2 286/1/2
f 285/3/2 255/3/2 286/3/2
f 256/3/2 257/3/2 287/3/2
f 286/1/2 256/1/2 287/1/2
f 257/1/2 258/1/2 288/1/2
f 287/3/2 257/3/2 288/3/2
f 258/3/2 259/3/2 289/3/2
f 288/1/2 258/1/2 289/1/2
f 259/1/2 260/1/2 290/1/2
f 289/3/2 259/3/2 290/3/2
f 260/3/2 261/3/2 291/3/2
f 290/1/2 260/1/2 291/1/2
f 261/1/2 262/1/2 292/1/2
f 291/3/2 261/3/2 292/3/2
f 262/3/2 263/3/2 293/3/2
f 292/1/2 262/1/2 293/1/2
f 263/1/2 264/1/2 294/1/2
f 293/3/2 263/3/2 294/3/2
f 264/3/2 265/3/2 295/3/2
f 294/1/2 264/1/2 295/1/2
f 265/1/2 266/1/2 296/1/2
f 295/3/2 265/3/2 296/3/2
f 266/3/2 267/3/2 297/3/2
f 296/1/2 266/1/2 297/1/2
f 267/1/2 268/1/2 298/1/2
f 297/3/2 267/3/2 298/3/2
f 268/3/2 269/3/2 299/3/2
f 298/1/2 268/1/2 299/1/2
f 269/1/2 270/1/2 300/1/2
f 299/3/2 269/3/2 300/3/2
f 270/3/2 271/3/2 301/3/2
f 300/1/2 270/1/2 301/1/2
f 271/1/2 272/1/2 302/1/2
f 301/3/2 271/3/2 302/3/2
f 272/3/2 273/3/2 303/3/2
f 302/1/2 272/1/2 303/1/2
f 273/1/2 274/1/2 304/1/2
f 303/3/2 273/3/2 304/3/2
f 274/3/2 275/3/2 305/3/2
f 304/1/2 274/1/2 305/1/2
f 275/1/2 276/1/2 306/1/2
f 305/3/2 275/3/2 306/3/2
f 276/3/2 277/3/2 307/3/2
f 306/1/2 276/1/2 307/1/2
f 277/1/2 278/1/2 308/1/2
f 307/3/2 277/3/2 308/3/2
f 278/3/2 279/3/2 309/3/2
f 308/1/2 278/1/2 309/1/2
f 279/1/2 280/1/2 310/1/2
f 309/3/2 279/3/2 310/3/2
f 280/3/2 281/3/2 311/3/2
f 310/1/2 280/1/2 311/1/2
f 281/1/2 282/1/2 312/1/2
f 311/3/2 281/3/2 312/3/2
f 282/3/2 283/3/2 313/3/2
f 312/1/2 282/1/2 313/1/2
f 313/3/2 283/3/2 314/3/2
f 315/2/2 316/2/2 317/2/2
f 317/2/2 316/2/2 318/2/2
f 322/2/3 320/2/3 319/2/3
f 323/1/3 321/1/3 320/1/3
f 323/2/3 320/2/3 322/2/3
f 326/2/3 325/2/3 324/2/3
f 327/1/3 321/1/3 323/1/3
f 328/2/3 326/2/3 324/2/3
f 328/2/3 327/2/3 326/2/3
f 329/2/3 327/2/3 328/2/3
f 330/2/3 327/2/3 329/2/3
f 331/2/3 327/2/3 330/2/3
f 332/1/3 321/1/3 327/1/3
f 332/2/3 327/2/3 331/2/3
f 333/2/3 328/2/3 324/2/3
f 334/2/3 328/2/3 333/2/3
f 335/1/3 332/1/3 331/1/3
f 336/1/3 321/1/3 332/1/3
f 336/1/3 332/1/3 335/1/3
f 337/2/3 330/2/3 329/2/3
f 338/2/3 330/2/3 337/2/3
f 347/2/3 340/2/3 339/2/3
f 348/2/3 340/2/3 347/2/3
f 349/2/3 342/2/3 341/2/3
f 350/2/3 342/2/3 349/2/3
f 351/2/3 344/2/3 343/2/3
f 352/2/3 344/2/3 351/2/3
f 353/2/3 346/2/3 345/2/3
f 354/2/3 346/2/3 353/2/3
f 357/2/3 356/2/3 355/2/3
f 358/2/3 356/2/3 357/2/3
f 361/2/3 360/2/3 359/2/3
f 362/2/3 360/2/3 361/2/3
f 363/2/3 361/2/3 359/2/3
f 364/2/3 361/2/3 363/2/3
f 365/2/3 361/2/3 364/2/3
f 366/2/4 367/2/4 368/2/4
f 368/2/4 367/2/4 369/2/4
f 370/2/4 371/2/4 372/2/4
f 372/2/4 371/2/4 373/2/4
f 370/2/4 372/2/4 374/2/4
f 374/2/4 372/2/4 375/2/4
f 375/2/4 372/2/4 376/2/4
f 377/2/4 378/2/4 381/2/4
f 381/2/4 378/2/4 382/2/4
f 379/2/4 380/2/4 383/2/4
f 383/2/4 380/2/4 384/2/4
f 385/2/4 386/2/4 389/2/4
f 389/2/4 386/2/4 390/2/4
f 387/2/4 388/2/4 391/2/4
f 391/2/4 388/2/4 392/2/4
f 393/2/4 394/2/4 396/2/4
f 394/3/4 395/3/4 397/3/4
f 396/2/4 394/2/4 397/2/4
f 398/2/4 399/2/4 400/2/4
f 397/3/4 395/3/4 401/3/4
f 398/2/4 400/2/4 402/2/4
f 400/2/4 401/2/4 402/2/4
f 402/2/4 401/2/4 403/2/4
f 403/2/4 401/2/4 404/2/4
f 404/2/4 401/2/4 405/2/4
f 401/3/4 395/3/4 406/3/4
f 405/2/4 401/2/4 406/2/4
f 398/2/4 402/2/4 407/2/4
f 407/2/4 402/2/4 408/2/4
f 405/3/4 406/3/4 409/3/4
f 406/3/4 395/3/4 410/3/4
f 409/3/4 406/3/4 410/3/4
f 403/2/4 404/2/4 411/2/4
f 411/2/4 404/2/4 412/2/4
f 417/2/5 414/2/5 413/2/5
f 418/2/5 414/2/5 417/2/5
f 419/2/5 417/2/5 413/2/5
f 420/2/5 414/2/5 418/2/5
f 421/2/5 419/2/5 413/2/5
f 421/2/5 420/2/5 419/2/5
f 422/2/5 414/2/5 420/2/5
f 422/2/5 420/2/5 421/2/5
f 423/2/5 416/2/5 415/2/5
f 424/2/5 416/2/5 423/2/5
f 427/2/5 426/2/5 425/2/5
f 428/2/5 426/2/5 427/2/5
f 431/2/5 430/2/5 429/2/5
f 432/2/5 430/2/5 431/2/5
f 435/2/5 434/2/5 433/2/5
f 436/2/5 434/2/5 435/2/5
f 439/2/5 438/2/5 437/2/5
f 440/2/5 438/2/5 439/2/5
f 443/1/5 442/1/5 441/1/5
f 444/1/5 442/1/5 443/1/5
f 445/3/5 444/3/5 443/3/5
f 446/3/5 444/3/5 445/3/5
f 447/1/5 446/1/5 445/1/5
f 448/1/5 446/1/5 447/1/5
f 451/3/5 448/3/5 447/3/5
f 452/3/5 448/3/5 451/3/5
f 453/1/5 452/1/5 451/1/5
f 454/1/5 452/1/5 453/1/5
f 455/3/5 454/3/5 453/3/5
f 456/3/5 454/3/5 455/3/5
f 457/1/5 456/1/5 455/1/5
f 458/1/5 456/1/5 457/1/5
f 459/3/5 458/3/5 457/3/5
f 460/3/5 458/3/5 459/3/5
f 461/1/5 460/1/5 459/1/5
f 462/1/5 460/1/5 461/1/5
f 463/3/5 462/3/5 461/3/5
f 464/3/5 462/3/5 463/3/5
f 465/1/5 464/1/5 463/1/5
f 466/1/5 464/1/5 465/1/5
f 467/3/5 466/3/5 465/3/5
f 468/3/5 466/3/5 467/3/5
f 469/1/5 468/1/5 467/1/5
f 470/1/5 468/1/5 469/1/5
f 471/3/5 470/3/5 469/3/5
f 472/3/5 470/3/5 471/3/5
f 473/1/5 472/1/5 471/1/5
f 474/1/5 472/1/5 473/1/5
f 475/3/5 474/3/5 473/3/5
f 476/3/5 474/3/5 475/3/5
f 477/1/5 476/1/5 475/1/5
f 478/1/5 476/1/5 477/1/5
f 479/3/5 478/3/5 477/3/5
f 480/3/5 478/3/5 479/3/5
f 481/1/5 480/1/5 479/1/5
f 482/1/5 480/1/5 481/1/5
f 483/3/5 482/3/5 481/3/5
f 484/3/5 482/3/5 483/3/5
f 485/1/5 484/1/5 483/1/5
f 486/1/5 484/1/5 485/1/5
f 487/3/5 486/3/5 485/3/5
f 488/3/5 486/3/5 487/3/5
f 489/1/5 488/1/5 487/1/5
f 490/1/5 488/1/5 489/1/5
f 491/3/5 490/3/5 489/3/5
f 492/3/5 490/3/5 491/3/5
f 493/1/5 492/1/5 491/1/5
f 494/1/5 492/1/5 493/1/5
f 495/2/5 450/2/5 449/2/5
f 496/2/5 450/2/5 495/2/5
f 497/3/5 494/3/5 493/3/5
f 498/3/5 494/3/5 497/3/5
f 499/1/5 498/1/5 497/1/5
f 500/1/5 498/1/5 499/1/5
f 501/3/5 500/3/5 499/3/5
f 502/3/5 500/3/5 501/3/5
f 503/1/5 502/1/5 501/1/5
f 504/1/5 502/1/5 503/1/5
f 505/3/5 504/3/5 503/3/5
f 506/3/5 504/3/5 505/3/5
f 509/2/5 508/2/5 507/2/5
f 510/2/5 509/2/5 507/2/5
f 511/2/5 510/2/5 507/2/5
f 512/2/5 511/2/5 507/2/5
f 513/2/5 512/2/5 507/2/5
f 514/2/5 513/2/5 507/2/5
f 515/2/5 514/2/5 507/2/5
f 516/2/5 515/2/5 507/2/5
f 517/2/5 516/2/5 507/2/5
f 518/2/5 517/2/5 507/2/5
f 519/2/5 518/2/5 507/2/5
f 520/2/5 519/2/5 507/2/5
f 521/2/5 520/2/5 507/2/5
f 522/2/5 521/2/5 507/2/5
f 523/2/5 522/2/5 507/2/5
f 524/2/5 523/2/5 507/2/5
f 525/2/5 524/2/5 507/2/5
f 526/2/5 525/2/5 507/2/5
f 527/2/5 526/2/5 507/2/5
f 528/2/5 527/2/5 507/2/5
f 529/2/5 527/2/5 528/2/5
f 532/1/5 531/1/5 530/1/5
f 533/1/5 531/1/5 532/1/5
f 534/3/5 533/3/5 532/3/5
f 535/3/5 533/3/5 534/3/5
f 536/1/5 535/1/5 534/1/5
f 537/1/5 535/1/5 536/1/5
f 538/3/5 537/3/5 536/3/5
f 539/3/5 537/3/5 538/3/5
f 542/1/5 539/1/5 538/1/5
f 543/1/5 539/1/5 542/1/5
f 545/3/5 541/3/5 540/3/5
f 546/3/5 541/3/5 545/3/5
f 547/3/5 543/3/5 542/3/5
f 547/3/5 544/3/5 543/3/5
f 548/3/5 544/3/5 547/3/5
f 549/1/5 546/1/5 545/1/5
f 550/1/5 546/1/5 549/1/5
f 551/1/5 548/1/5 547/1/5
f 552/1/5 548/1/5 551/1/5
f 553/3/5 550/3/5 549/3/5
f 554/3/5 550/3/5 553/3/5
f 555/3/5 552/3/5 551/3/5
f 556/3/5 552/3/5 555/3/5
f 557/1/5 554/1/5 553/1/5
f 558/1/5 554/1/5 557/1/5
f 559/1/5 556/1/5 555/1/5
f 560/1/5 556/1/5 559/1/5
f 561/3/5 560/3/5 559/3/5
f 562/3/5 560/3/5 561/3/5
f 563/1/5 562/1/5 561/1/5
f 564/1/5 562/1/5 563/1/5
f 565/3/5 564/3/5 563/3/5
f 566/3/5 564/3/5 565/3/5
f 567/1/5 566/1/5 565/1/5
f 568/1/5 566/1/5 567/1/5
f 569/3/5 568/3/5 567/3/5
f 570/3/5 568/3/5 569/3/5
f 571/1/5 570/1/5 569/1/5
f 572/1/5 570/1/5 571/1/5
f 573/3/5 572/3/5 571/3/5
f 574/3/5 572/3/5 573/3/5
f 575/1/5 574/1/5 573/1/5
f 576/1/5 574/1/5 575/1/5
f 577/3/5 576/3/5 575/3/5
f 578/3/5 576/3/5 577/3/5
f 579/1/5 578/1/5 577/1/5
f 580/1/5 578/1/5 579/1/5
f 581/3/5 580/3/5 579/3/5
f 582/3/5 580/3/5 581/3/5
f 583/1/5 582/1/5 581/1/5
f 584/1/5 582/1/5 583/1/5
f 585/3/5 584/3/5 583/3/5
f 586/3/5 584/3/5 585/3/5
f 587/1/5 586/1/5 585/1/5
f 588/1/5 586/1/5 587/1/5
f 589/3/5 588/3/5 587/3/5
f 590/3/5 588/3/5 589/3/5
f 591/1/5 590/1/5 589/1/5
f 592/1/5 590/1/5 591/1/5
f 593/1/5 590/1/5 592/1/5
f 594/3/5 592/3/5 591/3/5
f 595/3/5 592/3/5 594/3/5
f 596/1/5 595/1/5 594/1/5
f 597/1/5 595/1/5 596/1/5
f 598/3/5 597/3/5 596/3/5
f 599/3/5 597/3/5 598/3/5
f 600/1/5 599/1/5 598/1/5
f 601/1/5 599/1/5 600/1/5
f 602/3/5 601/3/5 600/3/5
f 603/3/5 601/3/5 602/3/5
f 604/2/6 605/2/6 606/2/6
f 606/2/6 605/2/6 607/2/6
f 608/2/6 609/2/6 610/2/6
f 610/2/6 609/2/6 611/2/6
f 612/2/6 613/2/6 616/2/6
f 614/2/6 615/2/6 617/2/6
f 612/2/6 616/2/6 618/2/6
f 616/2/6 617/2/6 618/2/6
f 617/2/6 615/2/6 619/2/6
f 618/2/6 617/2/6 619/2/6
f 612/2/6 618/2/6 620/2/6
f 620/2/6 618/2/6 621/2/6
f 619/2/6 615/2/6 622/2/6
f 622/2/6 615/2/6 623/2/6
f 624/2/6 625/2/6 626/2/6
f 626/2/6 625/2/6 627/2/6
f 628/2/6 629/2/6 630/2/6
f 630/2/6 629/2/6 631/2/6
f 632/2/6 633/2/6 634/2/6
f 634/2/6 633/2/6 635/2/6
f 636/1/6 637/1/6 638/1/6
f 638/1/6 637/1/6 639/1/6
f 638/3/6 639/3/6 640/3/6
f 640/3/6 639/3/6 641/3/6
f 640/1/6 641/1/6 642/1/6
f 642/1/6 641/1/6 643/1/6
f 642/3/6 643/3/6 644/3/6
f 644/3/6 643/3/6 645/3/6
f 644/1/6 645/1/6 646/1/6
f 646/1/6 645/1/6 647/1/6
f 646/3/6 647/3/6 648/3/6
f 648/3/6 647/3/6 649/3/6
f 648/1/6 649/1/6 650/1/6
f 650/1/6 649/1/6 651/1/6
f 650/3/6 651/3/6 652/3/6
f 652/3/6 651/3/6 653/3/6
f 652/1/6 653/1/6 654/1/6
f 654/1/6 653/1/6 655/1/6
f 654/3/6 655/3/6 656/3/6
f 656/3/6 655/3/6 657/3/6
f 656/1/6 657/1/6 658/1/6
f 658/1/6 657/1/6 659/1/6
f 658/3/6 659/3/6 660/3/6
f 660/3/6 659/3/6 661/3/6
f 660/1/6 661/1/6 662/1/6
f 662/1/6 661/1/6 663/1/6
f 662/3/6 663/3/6 664/3/6
f 664/3/6 663/3/6 665/3/6
f 664/1/6 665/1/6 666/1/6
f 666/1/6 665/1/6 667/1/6
f 666/3/6 667/3/6 668/3/6
f 668/3/6 667/3/6 669/3/6
f 668/1/6 669/1/6 670/1/6
f 670/1/6 669/1/6 671/1/6
f 670/3/6 671/3/6 672/3/6
f 672/3/6 671/3/6 673/3/6
f 672/1/6 673/1/6 674/1/6
f 674/1/6 673/1/6 675/1/6
f 674/3/6 675/3/6 676/3/6
f 676/3/6 675/3/6 677/3/6
f 676/1/6 677/1/6 678/1/6
f 678/1/6 677/1/6 679/1/6
f 678/3/6 679/3/6 680/3/6
f 680/3/6 679/3/6 681/3/6
f 680/1/6 681/1/6 682/1/6
f 682/1/6 681/1/6 683/1/6
f 682/3/6 683/3/6 684/3/6
f 684/3/6 683/3/6 685/3/6
f 684/1/6 685/1/6 686/1/6
f 686/1/6 685/1/6 687/1/6
f 686/3/6 687/3/6 688/3/6
f 688/3/6 687/3/6 689/3/6
f 688/1/6 689/1/6 690/1/6
f 690/1/6 689/1/6 691/1/6
f 690/3/6 691/3/6 692/3/6
f 692/3/6 691/3/6 693/3/6
f 692/1/6 693/1/6 694/1/6
f 694/1/6 693/1/6 695/1/6
f 694/3/6 695/3/6 696/3/6
f 696/3/6 695/3/6 697/3/6
