# MagicaVoxel @ Ephtracy

# material
mtllib Cruifix.mtl
usemtl palette

# normals
vn -1 0 0
vn 1 0 0
vn 0 0 1
vn 0 0 -1
vn 0 -1 0
vn 0 1 0

# texcoords
vt 0.369141 0.5
vt 0.970703 0.5

# verts
v 7 0 -4
v 7 0 -7
v 7 5 -1
v 7 5 -4
v 7 5 -7
v 7 5 -10
v 7 8 -1
v 7 8 -4
v 7 8 -7
v 7 8 -10
v 7 11 -3
v 7 11 -4
v 7 11 -7
v 7 11 -8
v 7 12 -2
v 7 12 -3
v 7 12 -4
v 7 12 -7
v 7 12 -8
v 7 12 -9
v 7 13 -1
v 7 13 -2
v 7 13 -3
v 7 13 -8
v 7 13 -9
v 7 13 -10
v 7 14 -1
v 7 14 -2
v 7 14 -9
v 7 14 -10
v 8 0 -4
v 8 0 -7
v 8 5 -1
v 8 5 -4
v 8 5 -7
v 8 5 -10
v 8 8 -1
v 8 8 -4
v 8 8 -7
v 8 8 -10
v 8 11 -3
v 8 11 -4
v 8 11 -7
v 8 11 -8
v 8 12 -2
v 8 12 -3
v 8 12 -4
v 8 12 -7
v 8 12 -8
v 8 12 -9
v 8 13 -1
v 8 13 -2
v 8 13 -3
v 8 13 -8
v 8 13 -9
v 8 13 -10
v 8 14 -1
v 8 14 -2
v 8 14 -9
v 8 14 -10
v 7 5 -1
v 7 8 -1
v 7 13 -1
v 7 14 -1
v 8 5 -1
v 8 8 -1
v 8 13 -1
v 8 14 -1
v 7 12 -2
v 7 13 -2
v 8 12 -2
v 8 13 -2
v 7 11 -3
v 7 12 -3
v 8 11 -3
v 8 12 -3
v 7 0 -4
v 7 5 -4
v 7 8 -4
v 7 11 -4
v 8 0 -4
v 8 5 -4
v 8 8 -4
v 8 11 -4
v 7 12 -8
v 7 13 -8
v 8 12 -8
v 8 13 -8
v 7 13 -9
v 7 14 -9
v 8 13 -9
v 8 14 -9
v 7 13 -2
v 7 14 -2
v 8 13 -2
v 8 14 -2
v 7 12 -3
v 7 13 -3
v 8 12 -3
v 8 13 -3
v 7 0 -7
v 7 5 -7
v 7 8 -7
v 7 11 -7
v 8 0 -7
v 8 5 -7
v 8 8 -7
v 8 11 -7
v 7 11 -8
v 7 12 -8
v 8 11 -8
v 8 12 -8
v 7 12 -9
v 7 13 -9
v 8 12 -9
v 8 13 -9
v 7 5 -10
v 7 8 -10
v 7 13 -10
v 7 14 -10
v 8 5 -10
v 8 8 -10
v 8 13 -10
v 8 14 -10
v 7 0 -4
v 8 0 -4
v 7 0 -7
v 8 0 -7
v 7 5 -1
v 8 5 -1
v 7 5 -4
v 8 5 -4
v 7 5 -7
v 8 5 -7
v 7 5 -10
v 8 5 -10
v 7 11 -3
v 8 11 -3
v 7 11 -4
v 8 11 -4
v 7 11 -7
v 8 11 -7
v 7 11 -8
v 8 11 -8
v 7 12 -2
v 8 12 -2
v 7 12 -3
v 8 12 -3
v 7 12 -8
v 8 12 -8
v 7 12 -9
v 8 12 -9
v 7 13 -1
v 8 13 -1
v 7 13 -2
v 8 13 -2
v 7 13 -9
v 8 13 -9
v 7 13 -10
v 8 13 -10
v 7 8 -1
v 8 8 -1
v 7 8 -4
v 8 8 -4
v 7 8 -7
v 8 8 -7
v 7 8 -10
v 8 8 -10
v 7 12 -3
v 8 12 -3
v 7 12 -4
v 8 12 -4
v 7 12 -7
v 8 12 -7
v 7 12 -8
v 8 12 -8
v 7 13 -2
v 8 13 -2
v 7 13 -3
v 8 13 -3
v 7 13 -8
v 8 13 -8
v 7 13 -9
v 8 13 -9
v 7 14 -1
v 8 14 -1
v 7 14 -2
v 8 14 -2
v 7 14 -9
v 8 14 -9
v 7 14 -10
v 8 14 -10

# faces
f 4/1/1 2/1/1 1/1/1
f 5/1/1 2/1/1 4/1/1
f 7/1/1 4/1/1 3/1/1
f 7/1/1 6/1/1 5/1/1
f 7/1/1 5/1/1 4/1/1
f 8/1/1 6/1/1 7/1/1
f 9/1/1 6/1/1 8/1/1
f 10/1/1 6/1/1 9/1/1
f 12/1/1 9/1/1 8/1/1
f 13/1/1 9/1/1 12/1/1
f 16/2/1 12/2/1 11/2/1
f 17/1/1 13/1/1 12/1/1
f 17/2/1 12/2/1 16/2/1
f 18/2/1 14/2/1 13/2/1
f 18/1/1 13/1/1 17/1/1
f 19/2/1 14/2/1 18/2/1
f 22/2/1 16/2/1 15/2/1
f 23/2/1 16/2/1 22/2/1
f 24/2/1 20/2/1 19/2/1
f 25/2/1 20/2/1 24/2/1
f 27/2/1 22/2/1 21/2/1
f 28/2/1 22/2/1 27/2/1
f 29/2/1 26/2/1 25/2/1
f 30/2/1 26/2/1 29/2/1
f 31/1/2 32/1/2 34/1/2
f 34/1/2 32/1/2 35/1/2
f 33/1/2 34/1/2 37/1/2
f 35/1/2 36/1/2 37/1/2
f 34/1/2 35/1/2 37/1/2
f 37/1/2 36/1/2 38/1/2
f 38/1/2 36/1/2 39/1/2
f 39/1/2 36/1/2 40/1/2
f 38/1/2 39/1/2 42/1/2
f 42/1/2 39/1/2 43/1/2
f 41/2/2 42/2/2 46/2/2
f 42/1/2 43/1/2 47/1/2
f 46/2/2 42/2/2 47/2/2
f 43/2/2 44/2/2 48/2/2
f 47/1/2 43/1/2 48/1/2
f 48/2/2 44/2/2 49/2/2
f 45/2/2 46/2/2 52/2/2
f 52/2/2 46/2/2 53/2/2
f 49/2/2 50/2/2 54/2/2
f 54/2/2 50/2/2 55/2/2
f 51/2/2 52/2/2 57/2/2
f 57/2/2 52/2/2 58/2/2
f 55/2/2 56/2/2 59/2/2
f 59/2/2 56/2/2 60/2/2
f 65/1/3 62/1/3 61/1/3
f 66/1/3 62/1/3 65/1/3
f 67/2/3 64/2/3 63/2/3
f 68/2/3 64/2/3 67/2/3
f 71/2/3 70/2/3 69/2/3
f 72/2/3 70/2/3 71/2/3
f 75/2/3 74/2/3 73/2/3
f 76/2/3 74/2/3 75/2/3
f 81/1/3 78/1/3 77/1/3
f 82/1/3 78/1/3 81/1/3
f 83/1/3 80/1/3 79/1/3
f 84/1/3 80/1/3 83/1/3
f 87/2/3 86/2/3 85/2/3
f 88/2/3 86/2/3 87/2/3
f 91/2/3 90/2/3 89/2/3
f 92/2/3 90/2/3 91/2/3
f 93/2/4 94/2/4 95/2/4
f 95/2/4 94/2/4 96/2/4
f 97/2/4 98/2/4 99/2/4
f 99/2/4 98/2/4 100/2/4
f 101/1/4 102/1/4 105/1/4
f 105/1/4 102/1/4 106/1/4
f 103/1/4 104/1/4 107/1/4
f 107/1/4 104/1/4 108/1/4
f 109/2/4 110/2/4 111/2/4
f 111/2/4 110/2/4 112/2/4
f 113/2/4 114/2/4 115/2/4
f 115/2/4 114/2/4 116/2/4
f 117/1/4 118/1/4 121/1/4
f 121/1/4 118/1/4 122/1/4
f 119/2/4 120/2/4 123/2/4
f 123/2/4 120/2/4 124/2/4
f 127/1/5 126/1/5 125/1/5
f 128/1/5 126/1/5 127/1/5
f 131/1/5 130/1/5 129/1/5
f 132/1/5 130/1/5 131/1/5
f 135/1/5 134/1/5 133/1/5
f 136/1/5 134/1/5 135/1/5
f 139/2/5 138/2/5 137/2/5
f 140/2/5 138/2/5 139/2/5
f 143/2/5 142/2/5 141/2/5
f 144/2/5 142/2/5 143/2/5
f 147/2/5 146/2/5 145/2/5
f 148/2/5 146/2/5 147/2/5
f 151/2/5 150/2/5 149/2/5
f 152/2/5 150/2/5 151/2/5
f 155/2/5 154/2/5 153/2/5
f 156/2/5 154/2/5 155/2/5
f 159/2/5 158/2/5 157/2/5
f 160/2/5 158/2/5 159/2/5
f 161/1/6 162/1/6 163/1/6
f 163/1/6 162/1/6 164/1/6
f 165/1/6 166/1/6 167/1/6
f 167/1/6 166/1/6 168/1/6
f 169/2/6 170/2/6 171/2/6
f 171/2/6 170/2/6 172/2/6
f 171/1/6 172/1/6 173/1/6
f 173/1/6 172/1/6 174/1/6
f 173/2/6 174/2/6 175/2/6
f 175/2/6 174/2/6 176/2/6
f 177/2/6 178/2/6 179/2/6
f 179/2/6 178/2/6 180/2/6
f 181/2/6 182/2/6 183/2/6
f 183/2/6 182/2/6 184/2/6
f 185/2/6 186/2/6 187/2/6
f 187/2/6 186/2/6 188/2/6
f 189/2/6 190/2/6 191/2/6
f 191/2/6 190/2/6 192/2/6
