# MagicaVoxel @ Ephtracy

# material
mtllib L6Grass.mtl
usemtl palette

# normals
vn -1 0 0
vn 1 0 0
vn 0 0 1
vn 0 0 -1
vn 0 -1 0
vn 0 1 0

# texcoords
vt 0.939453 0.5
vt 0.970703 0.5
vt 0.978516 0.5

# verts
v -5 0 5
v -5 0 -3
v -5 0 -4
v -5 0 -5
v -5 1 5
v -5 1 -3
v -5 1 -4
v -5 1 -5
v 5 0 5
v 5 0 -5
v 5 1 5
v 5 1 -5
v -5 0 5
v -5 1 5
v 5 0 5
v 5 1 5
v -5 0 -5
v -5 1 -5
v -4 0 -5
v -4 1 -5
v -3 0 -5
v -3 1 -5
v 5 0 -5
v 5 1 -5
v -5 0 5
v 5 0 5
v -2 0 4
v -1 0 4
v -3 0 3
v -2 0 3
v -1 0 3
v 0 0 3
v 3 0 3
v 4 0 3
v -3 0 2
v -2 0 2
v -1 0 2
v 0 0 2
v 3 0 2
v 4 0 2
v -2 0 1
v -1 0 1
v 2 0 -1
v 3 0 -1
v -4 0 -2
v -3 0 -2
v 1 0 -2
v 2 0 -2
v 3 0 -2
v 4 0 -2
v -5 0 -3
v -4 0 -3
v -3 0 -3
v -2 0 -3
v 1 0 -3
v 2 0 -3
v 3 0 -3
v 4 0 -3
v -5 0 -4
v -4 0 -4
v -3 0 -4
v -2 0 -4
v 2 0 -4
v 3 0 -4
v -5 0 -5
v -4 0 -5
v -3 0 -5
v 5 0 -5
v -5 1 5
v 5 1 5
v -2 1 4
v -1 1 4
v -3 1 3
v -2 1 3
v -1 1 3
v 0 1 3
v 3 1 3
v 4 1 3
v -3 1 2
v -2 1 2
v -1 1 2
v 0 1 2
v 3 1 2
v 4 1 2
v -2 1 1
v -1 1 1
v 2 1 -1
v 3 1 -1
v -4 1 -2
v -3 1 -2
v 1 1 -2
v 2 1 -2
v 3 1 -2
v 4 1 -2
v -5 1 -3
v -4 1 -3
v -3 1 -3
v -2 1 -3
v 1 1 -3
v 2 1 -3
v 3 1 -3
v 4 1 -3
v -5 1 -4
v -4 1 -4
v -3 1 -4
v -2 1 -4
v 2 1 -4
v 3 1 -4
v -5 1 -5
v -4 1 -5
v -3 1 -5
v 5 1 -5

# faces
f 5/2/1 2/2/1 1/2/1
f 6/1/1 3/1/1 2/1/1
f 6/2/1 2/2/1 5/2/1
f 7/2/1 4/2/1 3/2/1
f 7/1/1 3/1/1 6/1/1
f 8/2/1 4/2/1 7/2/1
f 9/2/2 10/2/2 11/2/2
f 11/2/2 10/2/2 12/2/2
f 15/2/3 14/2/3 13/2/3
f 16/2/3 14/2/3 15/2/3
f 17/2/4 18/2/4 19/2/4
f 19/2/4 18/2/4 20/2/4
f 19/1/4 20/1/4 21/1/4
f 21/1/4 20/1/4 22/1/4
f 21/2/4 22/2/4 23/2/4
f 23/2/4 22/2/4 24/2/4
f 27/2/5 26/2/5 25/2/5
f 28/2/5 26/2/5 27/2/5
f 29/2/5 27/2/5 25/2/5
f 30/3/5 28/3/5 27/3/5
f 30/2/5 27/2/5 29/2/5
f 31/2/5 26/2/5 28/2/5
f 31/3/5 28/3/5 30/3/5
f 32/2/5 26/2/5 31/2/5
f 33/2/5 26/2/5 32/2/5
f 34/2/5 26/2/5 33/2/5
f 35/3/5 30/3/5 29/3/5
f 35/2/5 29/2/5 25/2/5
f 36/2/5 31/2/5 30/2/5
f 36/3/5 30/3/5 35/3/5
f 37/3/5 32/3/5 31/3/5
f 37/2/5 31/2/5 36/2/5
f 38/2/5 33/2/5 32/2/5
f 38/3/5 32/3/5 37/3/5
f 39/1/5 34/1/5 33/1/5
f 39/2/5 33/2/5 38/2/5
f 40/2/5 26/2/5 34/2/5
f 40/1/5 34/1/5 39/1/5
f 41/2/5 36/2/5 35/2/5
f 41/3/5 37/3/5 36/3/5
f 42/2/5 39/2/5 38/2/5
f 42/3/5 37/3/5 41/3/5
f 42/2/5 38/2/5 37/2/5
f 42/2/5 40/2/5 39/2/5
f 43/2/5 42/2/5 41/2/5
f 43/2/5 40/2/5 42/2/5
f 44/2/5 40/2/5 43/2/5
f 45/2/5 41/2/5 35/2/5
f 45/2/5 35/2/5 25/2/5
f 45/2/5 43/2/5 41/2/5
f 46/2/5 43/2/5 45/2/5
f 47/2/5 43/2/5 46/2/5
f 48/3/5 44/3/5 43/3/5
f 48/2/5 43/2/5 47/2/5
f 49/2/5 40/2/5 44/2/5
f 49/3/5 44/3/5 48/3/5
f 50/2/5 26/2/5 40/2/5
f 50/2/5 40/2/5 49/2/5
f 51/2/5 45/2/5 25/2/5
f 52/1/5 46/1/5 45/1/5
f 52/2/5 45/2/5 51/2/5
f 53/2/5 47/2/5 46/2/5
f 53/1/5 46/1/5 52/1/5
f 54/2/5 47/2/5 53/2/5
f 55/3/5 48/3/5 47/3/5
f 55/2/5 47/2/5 54/2/5
f 56/2/5 49/2/5 48/2/5
f 56/3/5 48/3/5 55/3/5
f 57/3/5 50/3/5 49/3/5
f 57/2/5 49/2/5 56/2/5
f 58/2/5 26/2/5 50/2/5
f 58/3/5 50/3/5 57/3/5
f 59/1/5 52/1/5 51/1/5
f 60/2/5 53/2/5 52/2/5
f 60/1/5 52/1/5 59/1/5
f 61/1/5 54/1/5 53/1/5
f 61/2/5 53/2/5 60/2/5
f 62/2/5 55/2/5 54/2/5
f 62/1/5 54/1/5 61/1/5
f 62/2/5 56/2/5 55/2/5
f 63/3/5 57/3/5 56/3/5
f 63/2/5 56/2/5 62/2/5
f 64/2/5 58/2/5 57/2/5
f 64/3/5 57/3/5 63/3/5
f 65/2/5 60/2/5 59/2/5
f 66/1/5 61/1/5 60/1/5
f 66/2/5 60/2/5 65/2/5
f 67/2/5 62/2/5 61/2/5
f 67/1/5 61/1/5 66/1/5
f 67/2/5 63/2/5 62/2/5
f 67/2/5 64/2/5 63/2/5
f 68/2/5 58/2/5 64/2/5
f 68/2/5 64/2/5 67/2/5
f 68/2/5 26/2/5 58/2/5
f 69/2/6 70/2/6 71/2/6
f 71/2/6 70/2/6 72/2/6
f 69/2/6 71/2/6 73/2/6
f 71/3/6 72/3/6 74/3/6
f 73/2/6 71/2/6 74/2/6
f 72/2/6 70/2/6 75/2/6
f 74/3/6 72/3/6 75/3/6
f 75/2/6 70/2/6 76/2/6
f 76/2/6 70/2/6 77/2/6
f 77/2/6 70/2/6 78/2/6
f 73/3/6 74/3/6 79/3/6
f 69/2/6 73/2/6 79/2/6
f 74/2/6 75/2/6 80/2/6
f 79/3/6 74/3/6 80/3/6
f 75/3/6 76/3/6 81/3/6
f 80/2/6 75/2/6 81/2/6
f 76/2/6 77/2/6 82/2/6
f 81/3/6 76/3/6 82/3/6
f 77/1/6 78/1/6 83/1/6
f 82/2/6 77/2/6 83/2/6
f 78/2/6 70/2/6 84/2/6
f 83/1/6 78/1/6 84/1/6
f 79/2/6 80/2/6 85/2/6
f 80/3/6 81/3/6 85/3/6
f 82/2/6 83/2/6 86/2/6
f 85/3/6 81/3/6 86/3/6
f 81/2/6 82/2/6 86/2/6
f 83/2/6 84/2/6 86/2/6
f 85/2/6 86/2/6 87/2/6
f 86/2/6 84/2/6 87/2/6
f 87/2/6 84/2/6 88/2/6
f 79/2/6 85/2/6 89/2/6
f 69/2/6 79/2/6 89/2/6
f 85/2/6 87/2/6 89/2/6
f 89/2/6 87/2/6 90/2/6
f 90/2/6 87/2/6 91/2/6
f 87/3/6 88/3/6 92/3/6
f 91/2/6 87/2/6 92/2/6
f 88/2/6 84/2/6 93/2/6
f 92/3/6 88/3/6 93/3/6
f 84/2/6 70/2/6 94/2/6
f 93/2/6 84/2/6 94/2/6
f 69/2/6 89/2/6 95/2/6
f 89/1/6 90/1/6 96/1/6
f 95/2/6 89/2/6 96/2/6
f 90/2/6 91/2/6 97/2/6
f 96/1/6 90/1/6 97/1/6
f 97/2/6 91/2/6 98/2/6
f 91/3/6 92/3/6 99/3/6
f 98/2/6 91/2/6 99/2/6
f 92/2/6 93/2/6 100/2/6
f 99/3/6 92/3/6 100/3/6
f 93/3/6 94/3/6 101/3/6
f 100/2/6 93/2/6 101/2/6
f 94/2/6 70/2/6 102/2/6
f 101/3/6 94/3/6 102/3/6
f 95/1/6 96/1/6 103/1/6
f 96/2/6 97/2/6 104/2/6
f 103/1/6 96/1/6 104/1/6
f 97/1/6 98/1/6 105/1/6
f 104/2/6 97/2/6 105/2/6
f 98/2/6 99/2/6 106/2/6
f 105/1/6 98/1/6 106/1/6
f 99/2/6 100/2/6 106/2/6
f 100/3/6 101/3/6 107/3/6
f 106/2/6 100/2/6 107/2/6
f 101/2/6 102/2/6 108/2/6
f 107/3/6 101/3/6 108/3/6
f 103/2/6 104/2/6 109/2/6
f 104/1/6 105/1/6 110/1/6
f 109/2/6 104/2/6 110/2/6
f 105/2/6 106/2/6 111/2/6
f 110/1/6 105/1/6 111/1/6
f 106/2/6 107/2/6 111/2/6
f 107/2/6 108/2/6 111/2/6
f 108/2/6 102/2/6 112/2/6
f 111/2/6 108/2/6 112/2/6
f 102/2/6 70/2/6 112/2/6
