# MagicaVoxel @ Ephtracy

# material
mtllib EgyptianHouse.mtl
usemtl palette

# normals
vn -1 0 0
vn 1 0 0
vn 0 0 1
vn 0 0 -1
vn 0 -1 0
vn 0 1 0

# texcoords
vt 0.0371094 0.5
vt 0.173828 0.5
vt 0.865234 0.5

# verts
v -31 0 30
v -31 0 -0
v -31 17 30
v -31 17 -0
v -23 5 30
v -23 5 29
v -23 10 30
v -23 10 29
v -20 0 31
v -20 0 30
v -20 7 35
v -20 7 31
v -20 8 35
v -20 8 30
v -13 0 31
v -13 0 30
v -13 0 29
v -13 7 31
v -13 7 30
v -13 7 29
v -3 5 30
v -3 5 29
v -3 10 30
v -3 10 29
v -1 15 29
v -1 15 10
v -1 17 29
v -1 17 10
v -30 15 29
v -30 15 1
v -30 17 29
v -30 17 1
v -28 5 30
v -28 5 29
v -28 10 30
v -28 10 29
v -19 0 31
v -19 0 30
v -19 0 29
v -19 7 31
v -19 7 30
v -19 7 29
v -12 0 31
v -12 0 30
v -12 7 35
v -12 7 31
v -12 8 35
v -12 8 30
v -8 5 30
v -8 5 29
v -8 10 30
v -8 10 29
v -1 14 10
v -1 14 1
v -1 15 10
v -1 15 1
v 0 1 30
v 0 1 25
v 0 1 24
v 0 2 24
v 0 2 23
v 0 3 23
v 0 3 22
v 0 4 22
v 0 4 21
v 0 5 21
v 0 5 20
v 0 6 20
v 0 6 19
v 0 7 19
v 0 7 18
v 0 8 18
v 0 8 17
v 0 9 17
v 0 9 16
v 0 10 16
v 0 10 15
v 0 11 15
v 0 11 14
v 0 12 14
v 0 12 13
v 0 13 13
v 0 13 12
v 0 14 12
v 0 14 10
v 0 14 1
v 0 14 -0
v 0 17 30
v 0 17 10
v 0 17 1
v 0 17 -0
v 7 1 24
v 7 1 -0
v 7 2 24
v 7 2 23
v 7 3 23
v 7 3 22
v 7 4 22
v 7 4 21
v 7 5 21
v 7 5 20
v 7 6 20
v 7 6 19
v 7 7 19
v 7 7 18
v 7 8 18
v 7 8 17
v 7 9 17
v 7 9 16
v 7 10 16
v 7 10 15
v 7 11 15
v 7 11 14
v 7 12 14
v 7 12 13
v 7 13 13
v 7 13 12
v 7 14 12
v 7 14 -0
v 10 0 30
v 10 0 -0
v 10 1 30
v 10 1 -0
v -20 7 35
v -20 8 35
v -12 7 35
v -12 8 35
v -20 0 31
v -20 7 31
v -19 0 31
v -19 7 31
v -13 0 31
v -13 7 31
v -12 0 31
v -12 7 31
v -31 0 30
v -31 17 30
v -28 5 30
v -28 10 30
v -23 5 30
v -23 10 30
v -20 0 30
v -20 8 30
v -12 0 30
v -12 8 30
v -8 5 30
v -8 10 30
v -3 5 30
v -3 10 30
v 0 0 30
v 0 1 30
v 0 17 30
v 10 0 30
v 10 1 30
v -28 5 29
v -28 10 29
v -23 5 29
v -23 10 29
v -19 0 29
v -19 7 29
v -13 0 29
v -13 7 29
v -8 5 29
v -8 10 29
v -3 5 29
v -3 10 29
v 0 1 24
v 0 2 24
v 7 1 24
v 7 2 24
v 0 2 23
v 0 3 23
v 7 2 23
v 7 3 23
v 0 3 22
v 0 4 22
v 7 3 22
v 7 4 22
v 0 4 21
v 0 5 21
v 7 4 21
v 7 5 21
v 0 5 20
v 0 6 20
v 7 5 20
v 7 6 20
v 0 6 19
v 0 7 19
v 7 6 19
v 7 7 19
v 0 7 18
v 0 8 18
v 7 7 18
v 7 8 18
v 0 8 17
v 0 9 17
v 7 8 17
v 7 9 17
v 0 9 16
v 0 10 16
v 7 9 16
v 7 10 16
v 0 10 15
v 0 11 15
v 7 10 15
v 7 11 15
v 0 11 14
v 0 12 14
v 7 11 14
v 7 12 14
v 0 12 13
v 0 13 13
v 7 12 13
v 7 13 13
v 0 13 12
v 0 14 12
v 7 13 12
v 7 14 12
v -30 15 1
v -30 17 1
v -1 14 1
v -1 15 1
v 0 14 1
v 0 17 1
v -30 15 29
v -30 17 29
v -1 15 29
v -1 17 29
v -1 14 10
v -1 15 10
v -1 17 10
v 0 14 10
v 0 17 10
v -31 0 -0
v -31 17 -0
v 0 14 -0
v 0 17 -0
v 7 0 -0
v 7 1 -0
v 7 14 -0
v 10 0 -0
v 10 1 -0
v -20 0 31
v -19 0 31
v -13 0 31
v -12 0 31
v -31 0 30
v -20 0 30
v -19 0 30
v -13 0 30
v -12 0 30
v 0 0 30
v 10 0 30
v -19 0 29
v -13 0 29
v 0 0 25
v 7 0 25
v -31 0 -0
v 7 0 -0
v 10 0 -0
v -20 7 35
v -12 7 35
v -20 7 31
v -19 7 31
v -13 7 31
v -12 7 31
v -19 7 30
v -13 7 30
v -19 7 29
v -13 7 29
v -28 10 30
v -23 10 30
v -8 10 30
v -3 10 30
v -28 10 29
v -23 10 29
v -8 10 29
v -3 10 29
v 0 1 30
v 10 1 30
v 0 1 25
v 7 1 25
v 0 1 24
v 7 1 24
v 7 1 -0
v 10 1 -0
v 0 2 24
v 7 2 24
v 0 2 23
v 7 2 23
v 0 3 23
v 7 3 23
v 0 3 22
v 7 3 22
v 0 4 22
v 7 4 22
v 0 4 21
v 7 4 21
v -28 5 30
v -23 5 30
v -8 5 30
v -3 5 30
v -28 5 29
v -23 5 29
v -8 5 29
v -3 5 29
v 0 5 21
v 7 5 21
v 0 5 20
v 7 5 20
v 0 6 20
v 7 6 20
v 0 6 19
v 7 6 19
v 0 7 19
v 7 7 19
v 0 7 18
v 7 7 18
v -20 8 35
v -12 8 35
v -20 8 30
v -12 8 30
v 0 8 18
v 7 8 18
v 0 8 17
v 7 8 17
v 0 9 17
v 7 9 17
v 0 9 16
v 7 9 16
v 0 10 16
v 7 10 16
v 0 10 15
v 7 10 15
v 0 11 15
v 7 11 15
v 0 11 14
v 7 11 14
v 0 12 14
v 7 12 14
v 0 12 13
v 7 12 13
v 0 13 13
v 7 13 13
v 0 13 12
v 7 13 12
v 0 14 12
v 7 14 12
v -1 14 10
v 0 14 10
v -1 14 1
v 0 14 1
v 0 14 -0
v 7 14 -0
v -30 15 29
v -1 15 29
v -1 15 10
v -30 15 1
v -1 15 1
v -31 17 30
v 0 17 30
v -30 17 29
v -1 17 29
v -1 17 10
v 0 17 10
v -30 17 1
v 0 17 1
v -31 17 -0
v 0 17 -0

# faces
f 3/2/1 2/2/1 1/2/1
f 4/2/1 2/2/1 3/2/1
f 7/2/1 6/2/1 5/2/1
f 8/2/1 6/2/1 7/2/1
f 12/3/1 10/3/1 9/3/1
f 13/3/1 12/3/1 11/3/1
f 14/3/1 10/3/1 12/3/1
f 14/3/1 12/3/1 13/3/1
f 18/3/1 16/3/1 15/3/1
f 19/2/1 17/2/1 16/2/1
f 19/3/1 16/3/1 18/3/1
f 20/2/1 17/2/1 19/2/1
f 23/2/1 22/2/1 21/2/1
f 24/2/1 22/2/1 23/2/1
f 27/2/1 26/2/1 25/2/1
f 28/2/1 26/2/1 27/2/1
f 29/2/2 30/2/2 31/2/2
f 31/2/2 30/2/2 32/2/2
f 33/2/2 34/2/2 35/2/2
f 35/2/2 34/2/2 36/2/2
f 37/3/2 38/3/2 40/3/2
f 38/2/2 39/2/2 41/2/2
f 40/3/2 38/3/2 41/3/2
f 41/2/2 39/2/2 42/2/2
f 43/3/2 44/3/2 46/3/2
f 45/3/2 46/3/2 47/3/2
f 46/3/2 44/3/2 48/3/2
f 47/3/2 46/3/2 48/3/2
f 49/2/2 50/2/2 51/2/2
f 51/2/2 50/2/2 52/2/2
f 53/2/2 54/2/2 55/2/2
f 55/2/2 54/2/2 56/2/2
f 57/2/2 58/2/2 60/2/2
f 58/2/2 59/2/2 60/2/2
f 60/2/2 61/2/2 62/2/2
f 62/2/2 63/2/2 64/2/2
f 64/2/2 65/2/2 66/2/2
f 66/2/2 67/2/2 68/2/2
f 68/2/2 69/2/2 70/2/2
f 70/2/2 71/2/2 72/2/2
f 72/2/2 73/2/2 74/2/2
f 74/2/2 75/2/2 76/2/2
f 76/2/2 77/2/2 78/2/2
f 78/2/2 79/2/2 80/2/2
f 80/2/2 81/2/2 82/2/2
f 82/2/2 83/2/2 84/2/2
f 57/2/2 60/2/2 88/2/2
f 60/2/2 62/2/2 88/2/2
f 84/2/2 85/2/2 88/2/2
f 82/2/2 84/2/2 88/2/2
f 80/2/2 82/2/2 88/2/2
f 78/2/2 80/2/2 88/2/2
f 76/2/2 78/2/2 88/2/2
f 74/2/2 76/2/2 88/2/2
f 72/2/2 74/2/2 88/2/2
f 70/2/2 72/2/2 88/2/2
f 68/2/2 70/2/2 88/2/2
f 66/2/2 68/2/2 88/2/2
f 64/2/2 66/2/2 88/2/2
f 62/2/2 64/2/2 88/2/2
f 88/2/2 85/2/2 89/2/2
f 86/2/2 87/2/2 90/2/2
f 90/2/2 87/2/2 91/2/2
f 92/2/2 93/2/2 94/2/2
f 94/2/2 93/2/2 95/2/2
f 95/2/2 93/2/2 96/2/2
f 96/2/2 93/2/2 97/2/2
f 97/2/2 93/2/2 98/2/2
f 98/2/2 93/2/2 99/2/2
f 99/2/2 93/2/2 100/2/2
f 100/2/2 93/2/2 101/2/2
f 101/2/2 93/2/2 102/2/2
f 102/2/2 93/2/2 103/2/2
f 103/2/2 93/2/2 104/2/2
f 104/2/2 93/2/2 105/2/2
f 105/2/2 93/2/2 106/2/2
f 106/2/2 93/2/2 107/2/2
f 107/2/2 93/2/2 108/2/2
f 108/2/2 93/2/2 109/2/2
f 109/2/2 93/2/2 110/2/2
f 110/2/2 93/2/2 111/2/2
f 111/2/2 93/2/2 112/2/2
f 112/2/2 93/2/2 113/2/2
f 113/2/2 93/2/2 114/2/2
f 114/2/2 93/2/2 115/2/2
f 115/2/2 93/2/2 116/2/2
f 116/2/2 93/2/2 117/2/2
f 117/2/2 93/2/2 118/2/2
f 118/2/2 93/2/2 119/2/2
f 120/1/2 121/1/2 122/1/2
f 122/1/2 121/1/2 123/1/2
f 126/3/3 125/3/3 124/3/3
f 127/3/3 125/3/3 126/3/3
f 130/3/3 129/3/3 128/3/3
f 131/3/3 129/3/3 130/3/3
f 134/3/3 133/3/3 132/3/3
f 135/3/3 133/3/3 134/3/3
f 138/2/3 137/2/3 136/2/3
f 139/2/3 137/2/3 138/2/3
f 140/2/3 138/2/3 136/2/3
f 141/2/3 137/2/3 139/2/3
f 142/2/3 140/2/3 136/2/3
f 142/2/3 141/2/3 140/2/3
f 143/2/3 141/2/3 142/2/3
f 145/2/3 141/2/3 143/2/3
f 146/2/3 145/2/3 144/2/3
f 147/2/3 137/2/3 141/2/3
f 147/2/3 145/2/3 146/2/3
f 147/2/3 141/2/3 145/2/3
f 148/2/3 146/2/3 144/2/3
f 149/2/3 137/2/3 147/2/3
f 150/2/3 148/2/3 144/2/3
f 150/2/3 149/2/3 148/2/3
f 151/2/3 149/2/3 150/2/3
f 152/2/3 137/2/3 149/2/3
f 152/2/3 149/2/3 151/2/3
f 153/1/3 151/1/3 150/1/3
f 154/1/3 151/1/3 153/1/3
f 157/2/3 156/2/3 155/2/3
f 158/2/3 156/2/3 157/2/3
f 161/2/3 160/2/3 159/2/3
f 162/2/3 160/2/3 161/2/3
f 165/2/3 164/2/3 163/2/3
f 166/2/3 164/2/3 165/2/3
f 169/2/3 168/2/3 167/2/3
f 170/2/3 168/2/3 169/2/3
f 173/2/3 172/2/3 171/2/3
f 174/2/3 172/2/3 173/2/3
f 177/2/3 176/2/3 175/2/3
f 178/2/3 176/2/3 177/2/3
f 181/2/3 180/2/3 179/2/3
f 182/2/3 180/2/3 181/2/3
f 185/2/3 184/2/3 183/2/3
f 186/2/3 184/2/3 185/2/3
f 189/2/3 188/2/3 187/2/3
f 190/2/3 188/2/3 189/2/3
f 193/2/3 192/2/3 191/2/3
f 194/2/3 192/2/3 193/2/3
f 197/2/3 196/2/3 195/2/3
f 198/2/3 196/2/3 197/2/3
f 201/2/3 200/2/3 199/2/3
f 202/2/3 200/2/3 201/2/3
f 205/2/3 204/2/3 203/2/3
f 206/2/3 204/2/3 205/2/3
f 209/2/3 208/2/3 207/2/3
f 210/2/3 208/2/3 209/2/3
f 213/2/3 212/2/3 211/2/3
f 214/2/3 212/2/3 213/2/3
f 217/2/3 216/2/3 215/2/3
f 218/2/3 216/2/3 217/2/3
f 222/2/3 220/2/3 219/2/3
f 223/2/3 222/2/3 221/2/3
f 224/2/3 220/2/3 222/2/3
f 224/2/3 222/2/3 223/2/3
f 225/2/4 226/2/4 227/2/4
f 227/2/4 226/2/4 228/2/4
f 229/2/4 230/2/4 232/2/4
f 230/2/4 231/2/4 232/2/4
f 232/2/4 231/2/4 233/2/4
f 234/2/4 235/2/4 236/2/4
f 236/2/4 235/2/4 237/2/4
f 234/2/4 236/2/4 238/2/4
f 238/2/4 236/2/4 239/2/4
f 239/2/4 236/2/4 240/2/4
f 238/1/4 239/1/4 241/1/4
f 241/1/4 239/1/4 242/1/4
f 248/3/5 244/3/5 243/3/5
f 249/3/5 244/3/5 248/3/5
f 250/3/5 246/3/5 245/3/5
f 251/3/5 246/3/5 250/3/5
f 254/2/5 249/2/5 248/2/5
f 254/2/5 248/2/5 247/2/5
f 255/2/5 252/2/5 251/2/5
f 255/2/5 251/2/5 250/2/5
f 256/1/5 253/1/5 252/1/5
f 256/2/5 255/2/5 254/2/5
f 256/2/5 252/2/5 255/2/5
f 257/1/5 253/1/5 256/1/5
f 258/2/5 254/2/5 247/2/5
f 258/2/5 256/2/5 254/2/5
f 258/2/5 257/2/5 256/2/5
f 259/1/5 253/1/5 257/1/5
f 259/2/5 257/2/5 258/2/5
f 260/1/5 253/1/5 259/1/5
f 263/3/5 262/3/5 261/3/5
f 264/3/5 262/3/5 263/3/5
f 265/3/5 262/3/5 264/3/5
f 266/3/5 262/3/5 265/3/5
f 267/3/5 265/3/5 264/3/5
f 268/3/5 265/3/5 267/3/5
f 269/2/5 268/2/5 267/2/5
f 270/2/5 268/2/5 269/2/5
f 275/2/5 272/2/5 271/2/5
f 276/2/5 272/2/5 275/2/5
f 277/2/5 274/2/5 273/2/5
f 278/2/5 274/2/5 277/2/5
f 279/1/6 280/1/6 281/1/6
f 281/1/6 280/1/6 282/1/6
f 281/2/6 282/2/6 283/2/6
f 282/1/6 280/1/6 284/1/6
f 283/2/6 282/2/6 284/2/6
f 284/1/6 280/1/6 285/1/6
f 285/1/6 280/1/6 286/1/6
f 287/2/6 288/2/6 289/2/6
f 289/2/6 288/2/6 290/2/6
f 291/2/6 292/2/6 293/2/6
f 293/2/6 292/2/6 294/2/6
f 295/2/6 296/2/6 297/2/6
f 297/2/6 296/2/6 298/2/6
f 299/2/6 300/2/6 303/2/6
f 303/2/6 300/2/6 304/2/6
f 301/2/6 302/2/6 305/2/6
f 305/2/6 302/2/6 306/2/6
f 307/2/6 308/2/6 309/2/6
f 309/2/6 308/2/6 310/2/6
f 311/2/6 312/2/6 313/2/6
f 313/2/6 312/2/6 314/2/6
f 315/2/6 316/2/6 317/2/6
f 317/2/6 316/2/6 318/2/6
f 319/3/6 320/3/6 321/3/6
f 321/3/6 320/3/6 322/3/6
f 323/2/6 324/2/6 325/2/6
f 325/2/6 324/2/6 326/2/6
f 327/2/6 328/2/6 329/2/6
f 329/2/6 328/2/6 330/2/6
f 331/2/6 332/2/6 333/2/6
f 333/2/6 332/2/6 334/2/6
f 335/2/6 336/2/6 337/2/6
f 337/2/6 336/2/6 338/2/6
f 339/2/6 340/2/6 341/2/6
f 341/2/6 340/2/6 342/2/6
f 343/2/6 344/2/6 345/2/6
f 345/2/6 344/2/6 346/2/6
f 347/2/6 348/2/6 350/2/6
f 349/2/6 350/2/6 351/2/6
f 350/2/6 348/2/6 352/2/6
f 351/2/6 350/2/6 352/2/6
f 352/2/6 348/2/6 353/2/6
f 353/2/6 348/2/6 354/2/6
f 355/2/6 356/2/6 357/2/6
f 355/2/6 357/2/6 358/2/6
f 358/2/6 357/2/6 359/2/6
f 360/2/6 361/2/6 362/2/6
f 362/2/6 361/2/6 363/2/6
f 363/2/6 361/2/6 364/2/6
f 364/2/6 361/2/6 365/2/6
f 360/2/6 362/2/6 366/2/6
f 360/2/6 366/2/6 368/2/6
f 366/2/6 367/2/6 368/2/6
f 368/2/6 367/2/6 369/2/6
