# MagicaVoxel @ Ephtracy

# material
mtllib Tray.mtl
usemtl palette

# normals
vn -1 0 0
vn 1 0 0
vn 0 0 1
vn 0 0 -1
vn 0 -1 0
vn 0 1 0

# texcoords
vt 0.974609 0.5
vt 0.978516 0.5
vt 0.982422 0.5

# verts
v 0 0 20
v 0 0 -20
v 0 1 20
v 0 1 -20
v 0 2 20
v 0 2 -20
v 0 3 20
v 0 3 -20
v 19 1 19
v 19 1 -19
v 19 2 19
v 19 2 -19
v 19 3 19
v 19 3 -19
v 1 1 19
v 1 1 -19
v 1 2 19
v 1 2 -19
v 1 3 19
v 1 3 -19
v 20 0 20
v 20 0 -20
v 20 1 20
v 20 1 -20
v 20 2 20
v 20 2 -20
v 20 3 20
v 20 3 -20
v 0 0 20
v 0 1 20
v 0 2 20
v 0 3 20
v 20 0 20
v 20 1 20
v 20 2 20
v 20 3 20
v 1 1 -19
v 1 2 -19
v 1 3 -19
v 19 1 -19
v 19 2 -19
v 19 3 -19
v 1 1 19
v 1 2 19
v 1 3 19
v 19 1 19
v 19 2 19
v 19 3 19
v 0 0 -20
v 0 1 -20
v 0 2 -20
v 0 3 -20
v 20 0 -20
v 20 1 -20
v 20 2 -20
v 20 3 -20
v 0 0 20
v 20 0 20
v 0 0 -20
v 20 0 -20
v 1 1 19
v 19 1 19
v 1 1 -19
v 19 1 -19
v 0 3 20
v 20 3 20
v 1 3 19
v 19 3 19
v 1 3 -19
v 19 3 -19
v 0 3 -20
v 20 3 -20

# faces
f 3/3/1 2/3/1 1/3/1
f 4/3/1 2/3/1 3/3/1
f 5/2/1 4/2/1 3/2/1
f 6/2/1 4/2/1 5/2/1
f 7/1/1 6/1/1 5/1/1
f 8/1/1 6/1/1 7/1/1
f 11/2/1 10/2/1 9/2/1
f 12/2/1 10/2/1 11/2/1
f 13/1/1 12/1/1 11/1/1
f 14/1/1 12/1/1 13/1/1
f 15/2/2 16/2/2 17/2/2
f 17/2/2 16/2/2 18/2/2
f 17/1/2 18/1/2 19/1/2
f 19/1/2 18/1/2 20/1/2
f 21/3/2 22/3/2 23/3/2
f 23/3/2 22/3/2 24/3/2
f 23/2/2 24/2/2 25/2/2
f 25/2/2 24/2/2 26/2/2
f 25/1/2 26/1/2 27/1/2
f 27/1/2 26/1/2 28/1/2
f 33/3/3 30/3/3 29/3/3
f 34/2/3 31/2/3 30/2/3
f 34/3/3 30/3/3 33/3/3
f 35/1/3 32/1/3 31/1/3
f 35/2/3 31/2/3 34/2/3
f 36/1/3 32/1/3 35/1/3
f 40/2/3 38/2/3 37/2/3
f 41/1/3 39/1/3 38/1/3
f 41/2/3 38/2/3 40/2/3
f 42/1/3 39/1/3 41/1/3
f 43/2/4 44/2/4 46/2/4
f 44/1/4 45/1/4 47/1/4
f 46/2/4 44/2/4 47/2/4
f 47/1/4 45/1/4 48/1/4
f 49/3/4 50/3/4 53/3/4
f 50/2/4 51/2/4 54/2/4
f 53/3/4 50/3/4 54/3/4
f 51/1/4 52/1/4 55/1/4
f 54/2/4 51/2/4 55/2/4
f 55/1/4 52/1/4 56/1/4
f 59/3/5 58/3/5 57/3/5
f 60/3/5 58/3/5 59/3/5
f 61/3/6 62/3/6 63/3/6
f 63/3/6 62/3/6 64/3/6
f 65/1/6 66/1/6 67/1/6
f 67/1/6 66/1/6 68/1/6
f 65/1/6 67/1/6 69/1/6
f 68/1/6 66/1/6 70/1/6
f 65/1/6 69/1/6 71/1/6
f 69/1/6 70/1/6 71/1/6
f 70/1/6 66/1/6 72/1/6
f 71/1/6 70/1/6 72/1/6
